<svg width="315" height="70" viewBox="0 0 315 70" fill="none" xmlns="http://www.w3.org/2000/svg">
<g opacity="0.3" clip-path="url(#clip0_833_5811)">
<path d="M124.357 40.8233C122.773 40.1464 120.128 40.2831 117.134 42.0777L117.153 42.0343C117.153 42.0343 122.481 27.8817 122.655 27.4098C123.326 25.6027 123.152 24.162 122.506 23.2801C122.27 22.9572 121.624 22.2741 120.364 22.2431C119.451 22.2182 118.463 22.5722 117.936 22.8641C117.637 23.0317 117.644 23.336 117.65 23.541C117.675 24.2116 117.42 25.5903 117.079 26.5714C116.085 29.397 114.837 32.2287 114.501 32.9739C113.75 34.6506 111.719 38.774 109.055 40.9972C107.826 42.0281 106.683 42.587 105.696 42.5932C104.224 42.5808 104.1 40.2769 105.087 37.8488C105.087 37.8488 108.993 27.9687 109.074 27.7513C110.956 22.7833 107.515 21.206 104.211 22.8889C104.013 22.9945 103.789 23.1994 103.944 23.3671C104.41 23.8639 104.187 25.2301 103.423 27.5216C103.423 27.5216 101.256 33.3403 99.5727 36.8552C96.567 43.1272 91.5183 43.3135 93.7042 37.0787C94.2383 35.5511 103.007 11.6613 103.007 11.6613C103.994 8.83574 104.305 7.04105 103.013 5.8239C101.721 4.60674 99.6161 4.85514 98.1195 5.66865C97.9084 5.78664 97.6413 6.02883 97.8276 6.17787C98.5294 6.75539 98.2686 8.22716 97.5606 10.5435C95.6542 15.9337 89.1958 33.893 87.6557 38.4511C86.2709 42.5311 88.3575 44.6797 91.1954 44.7542C93.3192 44.8039 96.536 43.6737 99.6596 39.7738C99.7341 41.7362 100.591 43.9966 103.87 44.6611V44.6735C107.993 45.4808 110.595 42.6056 111.626 41.4319C111.937 41.0841 112.409 40.5377 112.663 40.2396L112.433 41.0034C111.993 42.2268 111.682 43.1831 111.278 44.3258C111.191 44.5679 111.105 44.8163 111.005 45.0772C107.584 47.7412 103.876 51.1505 101.547 53.7401C97.3309 58.4162 96.8775 64.0673 100.796 65.1851C106.646 66.8493 110.701 59.3353 114.52 49.0329L116.073 44.9095L116.284 44.3444V44.3195C121.525 40.7674 125.058 44.0649 125.195 45.8969C125.214 46.1515 125.574 46.195 125.723 46.0335C127.257 44.3879 126.536 41.7486 124.357 40.8233V40.8233ZM110.248 48.1635C107.018 56.5284 104.025 62.4216 101.169 62.136C99.908 62.0118 99.7217 60.6145 100.454 58.8571C102.243 54.6033 108.695 49.2192 110.303 47.9213L110.248 48.1635V48.1635Z" fill="white"/>
<path d="M87.5256 22.8481C84.8305 21.6248 81.6324 23.1338 77.422 28.4433H77.4096C78.4653 25.7917 78.6516 24.0715 77.5959 23.0344C76.2608 21.7241 73.7519 22.55 73.0129 22.9351C72.7521 23.0717 72.5782 23.2021 72.69 23.4505C73.1558 24.5124 72.3982 26.7852 71.5536 29.1885C71.2307 30.1076 70.3923 32.4425 69.3987 34.7961C67.7904 38.5966 64.4804 42.453 61.9219 41.7451C61.0463 41.5029 60.7483 40.1988 61.1892 38.9506L65.3188 26.9715C66.8589 21.9104 62.7354 21.5627 60.444 22.8357C60.1459 23.0034 59.9099 23.2021 60.0403 23.3884C60.5433 24.0963 60.0714 26.0214 59.7733 26.8411C58.612 30.0641 57.4197 34.7092 54.8488 38.4165C53.4081 40.6832 51.3836 42.1798 49.8622 42.0928C48.2911 41.9314 47.6825 40.205 48.763 36.833C49.1915 35.4978 51.3091 29.6729 52.4766 25.9655C53.5882 22.4321 49.6386 21.5937 47.1857 22.8978C46.987 23.0034 46.751 23.2083 46.9 23.3698C47.3534 23.8728 47.223 25.2762 46.4716 27.4125C45.5773 29.9648 44.1118 33.9143 43.261 37.7272C42.2426 42.3164 44.2049 44.465 47.3409 44.7569C50.5204 45.055 53.5695 42.9063 55.6499 40.2547C55.1034 43.4156 57.5439 44.6886 58.9039 44.8128C61.3009 45.0302 64.0209 43.7882 66.7098 41.1924C66.2503 43.3845 67.2128 44.7569 69.5788 44.7693C70.7401 44.7693 71.9262 44.2725 72.1435 43.8937C72.1746 43.844 72.187 43.8006 72.1622 43.7571C72.1187 43.6764 71.9262 43.3969 72.3236 42.1922C73.9569 37.2553 75.5901 33.6597 77.1612 31.511C78.9186 29.1078 81.3716 27.1703 83.0482 27.3379C84.6877 27.5056 84.7808 29.4183 84.2095 30.3063C83.9238 30.7224 84.1474 30.9273 84.4393 30.9025C89.1961 30.5174 90.997 24.4317 87.5194 22.8543L87.5256 22.8481Z" fill="white"/>
<path d="M51.9044 46.4174C50.6686 47.6594 48.2653 48.5412 46.0111 48.4108C42.0367 48.1748 39.4782 46.0448 37.0315 41.4556C34.8083 37.2825 31.7903 30.4826 30.8898 28.0793C38.1555 24.8439 46.3899 18.5097 47.5015 14.0448C47.7809 12.9208 47.5015 11.7098 46.7811 11.2254C46.3775 10.9584 46.1291 11.0453 45.949 11.2751C44.5518 16.4356 32.3306 24.4403 25.4872 26.0859C27.8345 19.4536 30.213 12.6537 30.3558 12.0948C31.7779 6.49343 28.5238 4.72358 25.0587 5.08376C15.9611 6.0401 6.12449 17.777 7.06219 27.5515C7.15534 28.4892 7.71424 30.3459 9.39714 30.7248C10.7199 31.0166 11.8128 30.2652 12.0861 29.2095C12.1233 29.0729 11.9929 28.9487 11.8625 28.9735C11.3036 29.0977 10.1485 28.1787 9.8691 26.533C8.27934 17.0814 19.4014 6.84739 24.2079 8.12665C25.2077 8.39368 25.5493 9.62325 24.9221 11.5111C23.1398 16.5784 16.5386 35.4692 14.8495 40.3378C12.943 45.8398 16.3523 48.032 20.0534 46.8583C20.4198 46.7403 20.5378 46.4112 20.3143 46.2559C19.3579 45.5914 19.4573 43.2813 20.8359 39.0648C20.9228 38.7977 23.8291 30.7931 23.9347 30.4888C24.5867 30.2528 25.2326 30.0292 25.7666 29.8243C32.3802 45.43 35.9137 51.7393 45.1541 51.1059C49.3831 50.814 51.8174 47.9574 52.4322 46.8955C52.6434 46.5354 52.1776 46.1193 51.8982 46.4049L51.9044 46.4174Z" fill="white"/>
<path d="M308.139 34.9762H293.03C293.074 38.6153 295.471 40.8385 298.756 40.8385C301.047 40.8385 303.016 39.702 303.966 37.3609L307.971 39.1804C306.338 42.9499 302.978 45.0364 298.545 45.0364C291.962 45.0364 288 41.0061 288 33.8957C288 26.7418 291.918 22.3203 298.327 22.3203C304.537 22.3203 308.139 26.7667 308.139 32.927V34.9762V34.9762ZM298.197 26.2326C294.968 26.2326 293.03 28.2074 293.03 31.5545H303.016C303.016 31.5545 303.544 26.2326 298.197 26.2326Z" fill="white"/>
<path d="M188.344 34.9762H173.235C173.279 38.6153 175.676 40.8385 178.961 40.8385C181.252 40.8385 183.221 39.702 184.171 37.3609L188.176 39.1804C186.543 42.9499 183.184 45.0364 178.75 45.0364C172.167 45.0364 168.205 41.0061 168.205 33.8957C168.205 26.7853 172.124 22.3203 178.532 22.3203C184.742 22.3203 188.344 26.7667 188.344 32.927V34.9762V34.9762ZM178.402 26.2326C175.173 26.2326 173.235 28.2074 173.235 31.5545H183.221C183.221 31.5545 183.749 26.2326 178.402 26.2326Z" fill="white"/>
<path d="M144.316 21.6976V44.6434H139.311V15.0156H146.011L158.94 38.0609V15.0156H163.945V44.6434H157.264L144.316 21.6976Z" fill="white"/>
<path d="M200.943 29.9776L205.327 23.1094H211.102L203.961 33.5359L211.705 44.658H205.842L200.949 37.1253L195.795 44.658H190.193L197.937 33.5359L190.752 23.1094H196.571L200.955 29.9776H200.943Z" fill="white"/>
<path d="M213.215 26.8556V23.1048H217.065V15.6094H222.195V23.1048H227.411V26.8556H222.195V37.1518C222.195 39.4371 223.176 40.5548 225.318 40.5548C226.175 40.5548 226.728 40.4244 227.411 40.294V44.6472C226.169 44.908 225.231 45.0322 223.903 45.0322C218.773 45.0322 217.059 42.3185 217.059 37.9653V26.8494H213.209L213.215 26.8556Z" fill="white"/>
<path d="M231.881 23.1092H236.799V26.9035C238.041 24.0158 240.09 22.5938 243.084 22.5938C246.12 22.5938 248.132 24.0593 249.2 26.9469C250.654 24.0158 252.833 22.5938 255.833 22.5938C259.981 22.5938 262.378 25.5249 262.378 30.5674V44.6578H257.249V31.3871C257.249 28.2386 256.094 26.7358 253.74 26.7358C251.175 26.7358 249.722 28.6298 249.722 32.0764V44.6578H244.593V31.2567C244.593 28.2821 243.351 26.7296 241.127 26.7296C238.563 26.7296 237.023 28.754 237.023 32.2006V44.6516H231.893V23.1092H231.881Z" fill="white"/>
<path d="M267.639 19.5325V14.1484H273.197V19.5325H267.639ZM267.85 44.6518V23.1094H272.979V44.6518H267.85Z" fill="white"/>
<path d="M284.02 13.4062V44.6424H278.891V13.4062H284.02Z" fill="white"/>
</g>
<defs>
<clipPath id="clip0_833_5811">
<rect width="301.14" height="60.4231" fill="white" transform="translate(7 5)"/>
</clipPath>
</defs>
</svg>
