<svg width="40" height="40" viewBox="0 0 40 40" fill="none" xmlns="http://www.w3.org/2000/svg">
    <circle cx="20" cy="20" r="19.5" fill="#fff" stroke="#F8F8F8"/>
    <path fill-rule="evenodd" clip-rule="evenodd" d="M32.003 20.283c0-.886-.08-1.738-.227-2.556H20.002v4.835h6.728a5.75 5.75 0 0 1-2.495 3.773v3.136h4.04c2.364-2.176 3.728-5.38 3.728-9.188z" fill="#4285F4"/>
    <path fill-rule="evenodd" clip-rule="evenodd" d="M20 32.5c3.376 0 6.206-1.12 8.274-3.028l-4.04-3.137c-1.12.75-2.551 1.194-4.233 1.194-3.256 0-6.012-2.2-6.995-5.154H8.83v3.239A12.496 12.496 0 0 0 20 32.5z" fill="#34A853"/>
    <path fill-rule="evenodd" clip-rule="evenodd" d="M13.006 22.372a7.515 7.515 0 0 1-.392-2.375c0-.824.142-1.625.392-2.375v-3.24H8.83a12.496 12.496 0 0 0-1.33 5.615c0 2.017.483 3.926 1.33 5.613l4.176-3.238z" fill="#FBBC05"/>
    <path fill-rule="evenodd" clip-rule="evenodd" d="M20.001 12.472c1.835 0 3.483.63 4.779 1.87l3.585-3.586C26.2 8.739 23.37 7.5 20 7.5a12.496 12.496 0 0 0-11.17 6.886l4.176 3.24c.983-2.955 3.738-5.154 6.994-5.154z" fill="#EA4335"/>
</svg>
