<svg width="80" height="80" viewBox="0 0 80 80" fill="none" xmlns="http://www.w3.org/2000/svg">
<path d="M28.1378 59.5078L29.9623 60.8417L27.3669 64.3917C26.9992 64.8947 26.2908 65.0048 25.7877 64.637C25.2847 64.2692 25.1746 63.5609 25.5424 63.0578L28.1378 59.5078V59.5078Z" fill="#55246C"/>
<path d="M51 60.8398L52.8245 59.506L55.4199 63.056C55.7877 63.559 55.6776 64.2674 55.1746 64.6352C54.6715 65.0029 53.9631 64.8929 53.5954 64.3898L51 60.8398V60.8398Z" fill="#55246C"/>
<path d="M40.083 65.419C52.6812 65.419 62.894 55.2061 62.894 42.6079C62.894 30.0097 52.6812 19.7969 40.083 19.7969C27.4848 19.7969 17.2719 30.0097 17.2719 42.6079C17.2719 55.2061 27.4848 65.419 40.083 65.419Z" fill="#BD84D6"/>
<path d="M40.0829 62.041C50.8147 62.041 59.5145 53.3412 59.5145 42.6094C59.5145 31.8776 50.8147 23.1777 40.0829 23.1777C29.3511 23.1777 20.6512 31.8776 20.6512 42.6094C20.6512 53.3412 29.3511 62.041 40.0829 62.041Z" fill="white"/>
<g opacity="0.4">
<path d="M40.083 23.1738C29.3533 23.1738 20.6513 31.8758 20.6513 42.6055C20.6513 48.097 23.1859 53.5886 26.9877 56.968L40.083 42.6055V23.1738Z" fill="#C18DD9"/>
</g>
<path d="M40.0829 25.2891V28.6685" stroke="#645D70" stroke-width="0.460829" stroke-miterlimit="10" stroke-linecap="round"/>
<path d="M40.0829 56.5488V59.9273" stroke="#645D70" stroke-width="0.460829" stroke-miterlimit="10" stroke-linecap="round"/>
<path d="M28.255 30.7812L30.7896 32.8934" stroke="#645D70" stroke-width="0.460829" stroke-miterlimit="10" stroke-linecap="round"/>
<path d="M49.7988 51.9023L52.4447 54.1625" stroke="#645D70" stroke-width="0.460829" stroke-miterlimit="10" stroke-linecap="round"/>
<path d="M23.1859 42.6074H26.5653" stroke="#645D70" stroke-width="0.460829" stroke-miterlimit="10" stroke-linecap="round"/>
<path d="M54.0231 42.6074H57.4015" stroke="#645D70" stroke-width="0.460829" stroke-miterlimit="10" stroke-linecap="round"/>
<path d="M29.0789 54.6538L31.5873 51.9043" stroke="#645D70" stroke-width="0.460829" stroke-miterlimit="10" stroke-linecap="round"/>
<path d="M50.2211 33.7368L52.6977 31.4522" stroke="#645D70" stroke-width="0.460829" stroke-miterlimit="10" stroke-linecap="round"/>
<path d="M21.1453 29.1438C20.6804 29.4085 20.0928 29.2148 19.8667 28.7273C17.739 24.1263 19.0176 18.8505 23.5185 16.2772C28.0193 13.7039 33.2144 15.2795 36.0976 19.4511C36.4011 19.8902 36.272 20.4972 35.807 20.762L21.1453 29.1438Z" fill="#55246C"/>
<path d="M23.7971 15.0063L22.275 15.8762C22.0025 16.032 21.9079 16.3791 22.0636 16.6516L22.1822 16.859C22.3379 17.1315 22.685 17.2261 22.9575 17.0704L24.4796 16.2004C24.7521 16.0447 24.8467 15.6975 24.691 15.4251L24.5725 15.2176C24.4167 14.9452 24.0696 14.8505 23.7971 15.0063Z" fill="#55246C"/>
<path d="M58.5508 29.1516C59.0158 29.4163 59.6034 29.2226 59.8294 28.7351C61.9604 24.1341 60.6786 18.8583 56.1809 16.285C51.6801 13.7117 46.485 15.2874 43.6017 19.4589C43.2982 19.898 43.4274 20.505 43.8923 20.7698L58.5541 29.1516H58.5508Z" fill="#55246C"/>
<path d="M55.217 16.2016L56.7391 17.0715C57.0116 17.2273 57.3587 17.1326 57.5145 16.8602L57.633 16.6527C57.7888 16.3802 57.6941 16.0331 57.4216 15.8774L55.8995 15.0074C55.627 14.8517 55.2799 14.9463 55.1242 15.2188L55.0056 15.4262C54.8499 15.6987 54.9445 16.0458 55.217 16.2016Z" fill="#55246C"/>
<path d="M38.8675 18.1055H41.3018C41.7966 18.1055 42.1952 18.4922 42.1952 18.9652V20.64H37.9709V18.9652C37.9709 18.489 38.3727 18.1055 38.8642 18.1055H38.8675Z" fill="#BD84D6"/>
<path d="M38.2902 43.2364L33.9477 48.3201C33.6316 48.6902 33.6629 49.2359 34.0177 49.539C34.3725 49.842 34.9164 49.7877 35.2325 49.4176L39.575 44.3338C39.8911 43.9637 39.8598 43.418 39.505 43.115C39.1502 42.8119 38.6063 42.8663 38.2902 43.2364Z" fill="#55246C"/>
<path d="M40.9278 41.7547V32.4784C40.9278 32.0071 40.5495 31.625 40.0829 31.625C39.6163 31.625 39.2381 32.0071 39.2381 32.4784V41.7547C39.2381 42.226 39.6163 42.6081 40.0829 42.6081C40.5495 42.6081 40.9278 42.226 40.9278 41.7547Z" fill="#55246C"/>
<path d="M40.083 44.7204C41.2495 44.7204 42.1952 43.7747 42.1952 42.6082C42.1952 41.4417 41.2495 40.4961 40.083 40.4961C38.9165 40.4961 37.9709 41.4417 37.9709 42.6082C37.9709 43.7747 38.9165 44.7204 40.083 44.7204Z" fill="#645D70"/>
</svg>
