<svg width="80" height="80" viewBox="0 0 80 80" fill="none" xmlns="http://www.w3.org/2000/svg">
<path d="M64.4827 56.75H15.7406V58.9763H64.4827V56.75Z" fill="#662B80"/>
<path d="M64.4827 62.2578H15.7406V64.4841H64.4827V62.2578Z" fill="#662B80"/>
<path d="M23.1224 58.9766H17.8499V62.2566H23.1224V58.9766Z" fill="#55246C"/>
<path d="M42.7487 58.9766H37.4762V62.2566H42.7487V58.9766Z" fill="#55246C"/>
<path d="M62.1973 58.9766H56.9247V62.2566H62.1973V58.9766Z" fill="#55246C"/>
<path d="M54.649 15.791H25.4959C22.3479 15.791 19.796 18.343 19.796 21.4909V50.6441C19.796 53.7921 22.3479 56.344 25.4959 56.344H54.649C57.797 56.344 60.349 53.7921 60.349 50.6441V21.4909C60.349 18.343 57.797 15.791 54.649 15.791Z" fill="#BD84D6"/>
<path d="M45.6326 15.791H35.8999V25.5237H45.6326V15.791Z" fill="#55246C"/>
<path d="M48.0746 41.7461L45.3553 44.5181H46.7282V49.8567H49.4211V44.5181H50.7413L48.0746 41.7461Z" fill="white"/>
<path d="M54.0432 41.7461L51.3258 44.5181H52.6967V49.8567H55.3897V44.5181H56.7099L54.0432 41.7461Z" fill="white"/>
<path d="M56.7102 50.668H45.3553V52.2901H56.7102V50.668Z" fill="white"/>
</svg>
