<svg width="80" height="80" viewBox="0 0 80 80" fill="none" xmlns="http://www.w3.org/2000/svg">
<path d="M64.701 57.5996H16.1463C15.7741 59.2828 15.5798 60.1245 15.2076 61.8077H63.7623C64.1346 60.1245 64.3288 59.2828 64.701 57.5996Z" fill="#55246C"/>
<path d="M25.9868 29.625H51.1543C53.1451 29.625 54.3994 31.2354 53.9543 33.2261C52.1416 41.351 50.3289 49.4758 48.5243 57.6006H16.1464C17.9591 49.4758 19.7718 41.351 21.5764 33.2261C22.0215 31.2354 23.9879 29.625 25.9787 29.625H25.9868Z" fill="#FFDA7C"/>
<path d="M64.7003 57.5968H48.5154C50.2068 49.998 51.0565 46.1945 52.7478 38.5957H63.7454C65.4934 38.5957 66.7477 39.8015 66.7639 41.509C66.7882 44.1471 66.7963 45.4581 66.8206 48.0962C65.9709 51.8997 65.5501 53.7933 64.7003 57.5968Z" fill="#645D70"/>
<path d="M53.201 47.1185C53.7918 44.4804 54.0831 43.1694 54.6658 40.5312H62.6288C63.7131 40.5312 64.4819 41.2758 64.4981 42.3359L64.5548 47.1185H53.201Z" fill="white"/>
<path d="M34.0716 57.5936C33.3757 55.2792 31.2959 53.7012 28.504 53.7012C25.7121 53.7012 22.9283 55.2792 21.1965 57.5936C20.4439 58.6052 19.8856 59.7462 19.6104 60.9682C19.5457 61.2514 19.5052 61.5347 19.4728 61.8098H33.9098C33.9988 61.5347 34.0797 61.2514 34.1445 60.9682C34.4196 59.7462 34.371 58.6052 34.0635 57.5936H34.0716Z" fill="#55246C"/>
<path d="M25.7765 65.9253C28.5117 65.9253 31.2308 63.7079 31.8377 60.9646C32.4447 58.2293 30.721 56.0039 27.9857 56.0039C25.2505 56.0039 22.5314 58.2212 21.9245 60.9646C21.3176 63.6998 23.0412 65.9253 25.7765 65.9253Z" fill="#662B80"/>
<path d="M26.3178 63.4827C27.7097 63.4827 29.0854 62.3579 29.3929 60.966C29.7004 59.5741 28.8264 58.4492 27.4426 58.4492C26.0588 58.4492 24.675 59.5741 24.3675 60.966C24.06 62.3579 24.934 63.4827 26.3178 63.4827Z" fill="white"/>
<path d="M62.2246 57.5936C61.5286 55.2792 59.4489 53.7012 56.657 53.7012C53.8651 53.7012 51.0813 55.2792 49.3495 57.5936C48.5969 58.6052 48.0385 59.7462 47.7634 60.9682C47.6986 61.2514 47.6582 61.5347 47.6258 61.8098H62.0627C62.1517 61.5347 62.2327 61.2514 62.2974 60.9682C62.5726 59.7462 62.524 58.6052 62.2165 57.5936H62.2246Z" fill="#55246C"/>
<path d="M53.9314 65.9253C56.6667 65.9253 59.3857 63.7079 59.9926 60.9646C60.5996 58.2293 58.8759 56.0039 56.1406 56.0039C53.4054 56.0039 50.6863 58.2212 50.0794 60.9646C49.4725 63.6998 51.1962 65.9253 53.9314 65.9253Z" fill="#662B80"/>
<path d="M54.4727 63.4827C55.8646 63.4827 57.2403 62.3579 57.5478 60.966C57.8553 59.5741 56.9814 58.4492 55.5975 58.4492C54.2137 58.4492 52.8299 59.5741 52.5224 60.966C52.2149 62.3579 53.0889 63.4827 54.4727 63.4827Z" fill="white"/>
<g filter="url(#filter0_d_919_10065)">
<path d="M26.3812 40.6192C33.0818 40.6192 38.5199 35.181 38.5199 28.4805C38.5199 21.7799 33.0818 16.3418 26.3812 16.3418C19.6807 16.3418 14.2426 21.7799 14.2426 28.4805C14.2426 35.181 19.6807 40.6192 26.3812 40.6192Z" fill="#662B80"/>
<path d="M26.3814 38.821C32.0947 38.821 36.7236 34.1921 36.7236 28.4789C36.7236 22.7656 32.0947 18.1367 26.3814 18.1367C20.6681 18.1367 16.0392 22.7656 16.0392 28.4789C16.0392 34.1921 20.6681 38.821 26.3814 38.821Z" fill="white"/>
<g opacity="0.4">
<path d="M16.039 28.4808H26.3812V18.1387C20.6679 18.1387 16.039 22.7676 16.039 28.4808V28.4808Z" fill="#C18DD9"/>
</g>
<path d="M26.3814 19.2617V21.0582" stroke="#645D70" stroke-width="0.441406" stroke-miterlimit="10" stroke-linecap="round"/>
<path d="M26.3814 35.9043V37.7008" stroke="#645D70" stroke-width="0.441406" stroke-miterlimit="10" stroke-linecap="round"/>
<path d="M20.087 22.1855L21.4384 23.3104" stroke="#645D70" stroke-width="0.441406" stroke-miterlimit="10" stroke-linecap="round"/>
<path d="M31.5452 33.4258L32.9533 34.6316" stroke="#645D70" stroke-width="0.441406" stroke-miterlimit="10" stroke-linecap="round"/>
<path d="M17.3835 28.4824H19.18" stroke="#645D70" stroke-width="0.441406" stroke-miterlimit="10" stroke-linecap="round"/>
<path d="M33.7941 28.4824H35.5907" stroke="#645D70" stroke-width="0.441406" stroke-miterlimit="10" stroke-linecap="round"/>
<path d="M20.5223 34.8905L21.8575 33.4258" stroke="#645D70" stroke-width="0.441406" stroke-miterlimit="10" stroke-linecap="round"/>
<path d="M31.7693 23.7646L33.0884 22.5508" stroke="#645D70" stroke-width="0.441406" stroke-miterlimit="10" stroke-linecap="round"/>
<path d="M26.3873 28.0315H22.8266C22.5676 28.0315 22.3572 28.2419 22.3572 28.4847C22.3572 28.7274 22.5676 28.9378 22.8266 28.9297H26.3873C26.6462 28.9297 26.8566 28.7193 26.8566 28.4766C26.8566 28.2257 26.6462 28.0234 26.3873 28.0315Z" fill="#55246C"/>
<path d="M26.8247 28.0282V23.0918C26.8247 22.841 26.6224 22.6387 26.3715 22.6387C26.1206 22.6387 25.9183 22.841 25.9183 23.0918V28.0282C25.9183 28.2791 26.1206 28.4814 26.3715 28.4814C26.6224 28.4814 26.8247 28.2791 26.8247 28.0282Z" fill="#55246C"/>
<path d="M26.3798 29.6013C27.0029 29.6013 27.5046 29.0995 27.5046 28.4764C27.5046 27.8533 27.0029 27.3516 26.3798 27.3516C25.7567 27.3516 25.2549 27.8533 25.2549 28.4764C25.2549 29.0995 25.7567 29.6013 26.3798 29.6013Z" fill="#645D70"/>
</g>
<path d="M15.7479 43.8711H11.3779" stroke="#645D70" stroke-width="1.46939" stroke-miterlimit="10" stroke-linecap="round"/>
<path d="M15.4566 47.9531H6.27972" stroke="#645D70" stroke-width="1.46939" stroke-miterlimit="10" stroke-linecap="round"/>
<path d="M13.7814 52.0273H8.31897" stroke="#645D70" stroke-width="1.46939" stroke-miterlimit="10" stroke-linecap="round"/>
<defs>
<filter id="filter0_d_919_10065" x="12.574" y="14.6733" width="28.7267" height="28.7267" filterUnits="userSpaceOnUse" color-interpolation-filters="sRGB">
<feFlood flood-opacity="0" result="BackgroundImageFix"/>
<feColorMatrix in="SourceAlpha" type="matrix" values="0 0 0 0 0 0 0 0 0 0 0 0 0 0 0 0 0 0 127 0" result="hardAlpha"/>
<feOffset dx="0.556172" dy="0.556172"/>
<feGaussianBlur stdDeviation="1.11234"/>
<feComposite in2="hardAlpha" operator="out"/>
<feColorMatrix type="matrix" values="0 0 0 0 0 0 0 0 0 0 0 0 0 0 0 0 0 0 0.1 0"/>
<feBlend mode="normal" in2="BackgroundImageFix" result="effect1_dropShadow_919_10065"/>
<feBlend mode="normal" in="SourceGraphic" in2="effect1_dropShadow_919_10065" result="shape"/>
</filter>
</defs>
</svg>
