<svg width="80" height="80" viewBox="0 0 80 80" fill="none" xmlns="http://www.w3.org/2000/svg">
<path d="M19.7077 25.5273H45.626C47.6727 25.5273 49.3337 27.1884 49.3337 29.2351V54.3315H16V29.2351C16 27.1884 17.6611 25.5273 19.7077 25.5273Z" fill="#FFDA7C"/>
<path d="M65.9995 54.3301H49.3333V34.7656H60.6554C62.4586 34.7656 64.0233 36.009 64.4299 37.7664L65.9995 44.5491V54.3313V54.3301Z" fill="#645D70"/>
<path d="M51.752 43.5451V36.7637H59.9535C61.0682 36.7637 62.036 37.5324 62.2881 38.6188L63.4424 43.5451H51.7532H51.752Z" fill="white"/>
<path d="M34.4581 54.3269C33.2061 51.9429 30.7083 50.3164 27.8287 50.3164C24.949 50.3164 22.4512 51.9429 21.1992 54.3269C20.6542 55.3651 20.344 56.5466 20.344 57.8011C20.344 58.0928 20.3625 58.3807 20.3947 58.6637H35.2614C35.2936 58.3807 35.3121 58.0928 35.3121 57.8011C35.3121 56.5466 35.0019 55.3651 34.4569 54.3269H34.4581Z" fill="#55246C"/>
<path d="M63.4458 54.3269C62.1938 51.9429 59.696 50.3164 56.8163 50.3164C53.9367 50.3164 51.4389 51.9429 50.1869 54.3269C49.6419 55.3651 49.3317 56.5466 49.3317 57.8011C49.3317 58.0928 49.3502 58.3807 49.3823 58.6637H64.2491C64.2812 58.3807 64.2998 58.0928 64.2998 57.8011C64.2998 56.5466 63.9896 55.3651 63.4445 54.3269H63.4458Z" fill="#55246C"/>
<path d="M66 54.3301H16V58.6669H66V54.3301Z" fill="#55246C"/>
<path d="M37.6666 25.5273H27.6666V35.5265L29.3333 35.5273L31 35.5272L32.6666 35.527L34.3333 35.5268L36 35.5267L37.6666 35.5265V25.5273Z" fill="#55246C"/>
<path d="M27.7216 63.6103C30.7341 63.6103 33.1762 61.1682 33.1762 58.1557C33.1762 55.1433 30.7341 52.7012 27.7216 52.7012C24.7092 52.7012 22.2671 55.1433 22.2671 58.1557C22.2671 61.1682 24.7092 63.6103 27.7216 63.6103Z" fill="#662B80"/>
<path d="M27.7391 60.6758C29.1198 60.6758 30.2391 59.5565 30.2391 58.1758C30.2391 56.7951 29.1198 55.6758 27.7391 55.6758C26.3584 55.6758 25.2391 56.7951 25.2391 58.1758C25.2391 59.5565 26.3584 60.6758 27.7391 60.6758Z" fill="white"/>
<path d="M56.7125 63.6103C59.725 63.6103 62.1671 61.1682 62.1671 58.1557C62.1671 55.1433 59.725 52.7012 56.7125 52.7012C53.7001 52.7012 51.258 55.1433 51.258 58.1557C51.258 61.1682 53.7001 63.6103 56.7125 63.6103Z" fill="#662B80"/>
<path d="M56.73 60.6758C58.1108 60.6758 59.23 59.5565 59.23 58.1758C59.23 56.7951 58.1108 55.6758 56.73 55.6758C55.3493 55.6758 54.23 56.7951 54.23 58.1758C54.23 59.5565 55.3493 60.6758 56.73 60.6758Z" fill="white"/>
</svg>
