<svg width="100" height="100" viewBox="0 0 100 100" fill="none" xmlns="http://www.w3.org/2000/svg">
    <path fill-rule="evenodd" clip-rule="evenodd" d="M61.526 65.227H12v6.834c0 2.83 11.087 5.123 24.763 5.123 13.677 0 24.764-2.293 24.764-5.123V65.227z" fill="#AB72C2"/>
    <ellipse cx="36.763" cy="65.233" rx="24.763" ry="5.123" fill="#C18DD5"/>
    <path fill-rule="evenodd" clip-rule="evenodd" d="M61.526 57.555H12v6.834c0 2.83 11.087 5.124 24.763 5.124 13.677 0 24.764-2.294 24.764-5.124V57.555z" fill="#AB72C2"/>
    <ellipse cx="36.763" cy="57.553" rx="24.763" ry="5.123" fill="#C18DD5"/>
    <path fill-rule="evenodd" clip-rule="evenodd" d="M61.526 49.867H12v6.835c0 2.83 11.087 5.123 24.763 5.123 13.677 0 24.764-2.294 24.764-5.123v-6.834z" fill="#AB72C2"/>
    <ellipse cx="36.763" cy="49.866" rx="24.763" ry="5.123" fill="#C18DD5"/>
    <path fill-rule="evenodd" clip-rule="evenodd" d="M61.526 42.18H12v6.834c0 2.83 11.087 5.123 24.763 5.123 13.677 0 24.764-2.293 24.764-5.123V42.18z" fill="#AB72C2"/>
    <ellipse cx="36.763" cy="42.178" rx="24.763" ry="5.123" fill="#C18DD5"/>
    <path fill-rule="evenodd" clip-rule="evenodd" d="M61.526 34.492H12v6.835c0 2.83 11.087 5.123 24.763 5.123 13.677 0 24.764-2.294 24.764-5.123v-6.834z" fill="#AB72C2"/>
    <ellipse cx="36.763" cy="34.491" rx="24.763" ry="5.123" fill="#C18DD5"/>
    <path fill-rule="evenodd" clip-rule="evenodd" d="M61.526 26.82H12v6.835c0 2.83 11.087 5.123 24.763 5.123 13.677 0 24.764-2.294 24.764-5.123V26.82z" fill="#AB72C2"/>
    <ellipse cx="36.763" cy="26.819" rx="24.763" ry="5.123" fill="#C18DD5"/>
    <path fill-rule="evenodd" clip-rule="evenodd" d="M61.526 19.125H12V25.959c0 2.83 11.087 5.124 24.763 5.124 13.677 0 24.764-2.294 24.764-5.124V19.125z" fill="#AB72C2"/>
    <ellipse cx="36.763" cy="19.123" rx="24.763" ry="5.123" fill="#C18DD5"/>
    <mask id="ucdv760fka" style="mask-type:alpha" maskUnits="userSpaceOnUse" x="12" y="14" width="50" height="64">
        <path fill-rule="evenodd" clip-rule="evenodd" d="M61.526 19.125v-.002c0-2.83-11.086-5.123-24.763-5.123C23.087 14 12 16.294 12 19.123v6.836c0 .145.029.288.086.43a1.145 1.145 0 0 0-.086.43v6.836c0 .14.027.28.081.418a1.142 1.142 0 0 0-.081.418v6.836c0 .144.029.288.086.43a1.146 1.146 0 0 0-.086.429V49.022c0 .143.028.285.084.426-.056.14-.084.282-.084.425v6.836c0 .142.028.283.083.422-.055.14-.083.28-.083.422V64.39c0 .143.028.285.084.426a1.147 1.147 0 0 0-.084.42h.335l.005.006H12v6.828c0 2.83 11.087 5.123 24.763 5.123 13.677 0 24.764-2.294 24.764-5.123V65.24h-.341l.005-.007h.335c0-.14-.029-.28-.084-.42.056-.14.084-.282.084-.425v-6.836c0-.142-.027-.283-.082-.422.055-.139.082-.28.082-.422v-6.836c0-.143-.028-.285-.084-.425.056-.14.084-.283.084-.426v-6.836c0-.145-.029-.288-.085-.43.056-.141.085-.285.085-.43v-6.835c0-.141-.027-.28-.08-.418.053-.138.08-.278.08-.418v-6.836c0-.145-.029-.288-.085-.43.056-.142.085-.285.085-.43V19.125z" fill="#21002E"/>
    </mask>
    <g filter="url(#3c5yxf83zb)" mask="url(#ucdv760fka)">
        <circle cx="56.83" cy="57.131" r="23.482" fill="#641A82" fill-opacity=".3"/>
    </g>
    <circle cx="62.383" cy="60.117" r="25.617" fill="#C08DD4"/>
    <circle cx="62.383" cy="60.113" r="21.348" fill="#B677CF"/>
    <path d="M74.53 70.695c-.686.702-2.022 1.2-3.275 1.127-2.208-.133-3.63-1.337-4.99-3.932-1.236-2.359-2.913-6.203-3.413-7.561 4.038-1.829 8.614-5.41 9.232-7.934.155-.635 0-1.32-.4-1.593-.225-.151-.363-.102-.463.028-.776 2.917-7.569 7.442-11.372 8.372 1.305-3.749 2.626-7.593 2.706-7.909.79-3.166-1.018-4.167-2.944-3.963-5.056.54-10.523 7.175-10.002 12.7.052.53.362 1.58 1.297 1.794.736.165 1.343-.26 1.495-.856.02-.077-.052-.148-.124-.134-.311.07-.953-.449-1.108-1.38-.884-5.342 5.298-11.127 7.969-10.404.556.151.745.846.397 1.913-.99 2.865-4.66 13.543-5.598 16.295-1.06 3.11.835 4.35 2.892 3.686.204-.066.27-.252.145-.34-.532-.376-.476-1.682.29-4.065.048-.151 1.663-4.676 1.722-4.848.362-.133.721-.26 1.018-.376 3.676 8.822 5.64 12.389 10.775 12.03 2.35-.164 3.704-1.78 4.045-2.38.118-.203-.141-.438-.297-.277l.004.007z" fill="#fff"/>
    <defs>
        <filter id="3c5yxf83zb" x="29.932" y="30.233" width="53.796" height="53.796" filterUnits="userSpaceOnUse" color-interpolation-filters="sRGB">
            <feFlood flood-opacity="0" result="BackgroundImageFix"/>
            <feBlend in="SourceGraphic" in2="BackgroundImageFix" result="shape"/>
            <feGaussianBlur stdDeviation="1.708" result="effect1_foregroundBlur_950_5764"/>
        </filter>
    </defs>
</svg>
