<svg width="100" height="100" viewBox="0 0 100 100" fill="none" xmlns="http://www.w3.org/2000/svg">
    <path fill-rule="evenodd" clip-rule="evenodd" d="M50 10c-14.477 6.895-22.559 9.41-37 10.927v35.512C15.036 72.01 29.667 88.096 50 90V10zm0 0c14.478 6.895 22.56 9.41 37 10.927v35.512C84.965 72.01 70.334 88.096 50 90V10z" fill="#C18DD5"/>
    <circle cx="50" cy="52" r="25" fill="#fff"/>
    <path fill-rule="evenodd" clip-rule="evenodd" d="M46.44 39.781a.751.751 0 0 0-.75.751v6.265h-6.26a.75.75 0 0 0-.75.75v8.311c0 .415.336.751.75.751h6.26v6.251c0 .415.336.751.75.751h8.311a.75.75 0 0 0 .751-.75v-6.252h6.256a.75.75 0 0 0 .752-.75v-8.311a.75.75 0 0 0-.752-.751h-6.256v-6.265a.751.751 0 0 0-.75-.75H46.44z" fill="#55246C"/>
</svg>
