<svg width="100" height="100" viewBox="0 0 100 100" fill="none" xmlns="http://www.w3.org/2000/svg">
    <path d="m33.805 24.55 3.188-.854 16.736 62.46a1.65 1.65 0 1 1-3.188.854L33.805 24.55z" fill="#55246C"/>
    <circle cx="32.821" cy="15.602" r="2.912" transform="rotate(-15 32.82 15.602)" fill="#55246C"/>
    <path fill-rule="evenodd" clip-rule="evenodd" d="m32.822 15.598 7.786 29.06 10.315-2.765C47.194 29.85 39.298 15.83 32.853 15.59c16.044-4.28 32.527 5.245 36.826 21.289-2.082-.95-5.869-1.443-10.13-.3-3.836 1.027-7.295 3.461-8.624 5.325L30.292 47.43c-2.083-.949-5.868-1.44-10.129-.3-3.834 1.028-7.293 3.462-8.622 5.325-4.3-16.048 5.218-32.543 21.26-36.853-5.473 3.417-5.302 19.52-2.508 31.822l10.315-2.764-7.787-29.063z" fill="#B677CF"/>
    <path fill-rule="evenodd" clip-rule="evenodd" d="m39.854 41.85-7.035-26.255c6.45.192 14.367 14.239 18.103 26.303-2.253-.904-6.38-1.305-11.067-.049h-.001zm0 0L32.82 15.598c-5.492 3.392-5.324 19.517-2.526 31.833h.002l-.002-.006c1.499-1.909 5.34-4.446 9.56-5.577z" fill="#fff"/>
    <path fill-rule="evenodd" clip-rule="evenodd" d="M70.435 72.335v.224H28.627v-4.4a3.3 3.3 0 0 1 3.3-3.301H68.53a3.37 3.37 0 0 1 .241-.201L86.91 50.953a3.3 3.3 0 0 1 4.623.643l2.653 3.512L70.78 72.791l-.346-.457z" fill="#B677CF"/>
    <path fill-rule="evenodd" clip-rule="evenodd" d="M34.418 75.867h33.87l3.798 7.936 5.294-.041-4.468-8.931 23.213-17.515a2.2 2.2 0 1 0-2.65-3.513l-23.41 17.663H27.527a2.2 2.2 0 0 0 0 4.4h1.75l-3.95 7.896 5.294.04 3.797-7.935z" fill="#4C241D"/>
</svg>
