<svg width="100" height="100" viewBox="0 0 100 100" fill="none" xmlns="http://www.w3.org/2000/svg">
    <path fill-rule="evenodd" clip-rule="evenodd" d="M81.871 27.505a6.1 6.1 0 1 0-8.146-9.046h-.001l-.017.019c-.125.13-.244.263-.355.4-1.247 1.368-2.179 1.913-3.963 1.445l.003.003c-4.484-1.436-9.16-.696-12.247 2.39-4.764 4.764-3.937 13.316 1.848 19.1 5.785 5.785 14.336 6.612 19.1 1.849 3.094-3.095 3.83-7.787 2.38-12.281-.446-1.738.08-2.665 1.398-3.879z" fill="#fff"/>
    <rect x="54.68" y="20.25" width="36.596" height="12.199" rx="3.021" transform="rotate(45 54.68 20.25)" fill="#55246C"/>
    <path d="m47.9 30.727 22.181 22.18s2.156 6.47-1.232 9.858l-29.78 29.78a7.55 7.55 0 0 1-10.679 0L8.264 72.417a7.55 7.55 0 0 1-.002-10.678l29.78-29.78c3.081-2.465 9.859-1.233 9.859-1.233z" fill="#C18DD5"/>
    <path d="m36.029 36.432-1.068-1.068-2.136 2.136 1.068 1.068 2.136-2.136zm7.722 11.994a1.51 1.51 0 0 0 2.136-2.136l-2.136 2.136zm-9.858-9.858 9.858 9.858 2.136-2.136-9.858-9.858-2.136 2.136zM26.17 46.3l-1.068-1.069-2.136 2.136 1.068 1.068L26.17 46.3zm7.721 11.993a1.51 1.51 0 0 0 2.136-2.136l-2.136 2.136zm-9.857-9.858 9.858 9.858 2.135-2.136L26.17 46.3l-2.135 2.136zM16.312 56.15l-1.068-1.067-2.136 2.136 1.068 1.068 2.136-2.136zm7.722 11.995a1.51 1.51 0 0 0 2.136-2.136l-2.136 2.136zm-9.858-9.858 9.858 9.858 2.136-2.136-9.858-9.858-2.136 2.136zM21.242 51.221l-1.068-1.068-2.136 2.136 1.068 1.068 2.136-2.136zm3.409 7.681a1.51 1.51 0 0 0 2.136-2.136l-2.136 2.136zm-5.545-5.545 5.545 5.545 2.136-2.136-5.545-5.545-2.136 2.136zM31.1 41.362l-1.069-1.068-2.136 2.136 1.068 1.068 2.136-2.136zm3.408 7.68a1.51 1.51 0 0 0 2.136-2.135l-2.136 2.136zm-5.545-5.544 5.545 5.545 2.136-2.136-5.545-5.545-2.136 2.136z" fill="#FBF1FF"/>
</svg>
