<svg width="24" height="25" viewBox="0 0 24 25" fill="none" xmlns="http://www.w3.org/2000/svg">
<path d="M11.8825 25C9.93566 25 8.21259 24.6491 6.71329 23.9474C5.23636 23.2237 3.99441 22.2697 2.98741 21.0855C2.0028 19.8794 1.25315 18.5307 0.738461 17.0395C0.246154 15.5482 0 14.0241 0 12.4671C0 10.932 0.246154 9.41886 0.738461 7.92763C1.25315 6.4364 2.0028 5.09868 2.98741 3.91447C3.99441 2.70833 5.23636 1.75439 6.71329 1.05263C8.21259 0.350878 9.93566 0 11.8825 0C13.8294 0 15.5413 0.350878 17.0182 1.05263C18.4951 1.75439 19.7259 2.70833 20.7105 3.91447C21.7175 5.09868 22.4783 6.4364 22.993 7.92763C23.5077 9.41886 23.765 10.932 23.765 12.4671C23.765 14.0899 23.4853 15.6798 22.9259 17.2368C22.3888 18.7719 21.5944 20.1316 20.5427 21.3158L24 24.6711H20.7776L18.8643 22.8289C17.9469 23.5088 16.9063 24.0461 15.7427 24.4408C14.579 24.8136 13.2923 25 11.8825 25ZM11.8825 22.6316C12.8671 22.6316 13.7846 22.5 14.635 22.2368C15.5077 21.9518 16.3021 21.557 17.0182 21.0526L12.6545 16.8421L14.3664 15.2961L18.7301 19.5395C19.4909 18.6403 20.0727 17.5877 20.4755 16.3816C20.9007 15.1754 21.1133 13.8706 21.1133 12.4671C21.1133 10.5592 20.7217 8.84868 19.9385 7.33553C19.1552 5.80044 18.0699 4.5943 16.6825 3.71711C15.2951 2.81798 13.6951 2.36842 11.8825 2.36842C10.0476 2.36842 8.43636 2.81798 7.04895 3.71711C5.66154 4.5943 4.57622 5.80044 3.79301 7.33553C3.00979 8.84868 2.61818 10.5592 2.61818 12.4671C2.61818 14.3969 3.00979 16.1294 3.79301 17.6645C4.57622 19.1996 5.66154 20.4167 7.04895 21.3158C8.43636 22.193 10.0476 22.6316 11.8825 22.6316Z" fill="#999999"/>
</svg>
