<svg width="120" height="120" viewBox="0 0 120 120" fill="none" xmlns="http://www.w3.org/2000/svg">
<path d="M37.3789 96.8052L40.8342 99.3313L35.9191 106.054C35.2226 107.007 33.881 107.215 32.9284 106.519C31.9757 105.822 31.7673 104.481 32.4638 103.528L37.3789 96.8052V96.8052Z" fill="#55246C"/>
<path d="M80.6758 99.3301L84.1311 96.8039L89.0462 103.527C89.7427 104.48 89.5343 105.821 88.5816 106.518C87.629 107.214 86.2874 107.006 85.5909 106.053L80.6758 99.3301V99.3301Z" fill="#55246C"/>
<path d="M59.9988 108.002C83.8575 108.002 103.199 88.6607 103.199 64.802C103.199 40.9433 83.8575 21.6021 59.9988 21.6021C36.1401 21.6021 16.7988 40.9433 16.7988 64.802C16.7988 88.6607 36.1401 108.002 59.9988 108.002Z" fill="#BD84D6"/>
<path d="M59.9992 101.602C80.3233 101.602 96.7992 85.1265 96.7992 64.8024C96.7992 44.4784 80.3233 28.0024 59.9992 28.0024C39.6751 28.0024 23.1992 44.4784 23.1992 64.8024C23.1992 85.1265 39.6751 101.602 59.9992 101.602Z" fill="white"/>
<g opacity="0.4">
<path d="M59.9992 28.0063C39.6792 28.0063 23.1992 44.4863 23.1992 64.8063C23.1992 75.2063 27.9992 85.6063 35.1992 92.0063L59.9992 64.8063V28.0063Z" fill="#C18DD9"/>
</g>
<path d="M60.002 32.0054V38.4054" stroke="#645D70" stroke-width="1.45455" stroke-miterlimit="10" stroke-linecap="round"/>
<path d="M60.002 91.2056V97.6037" stroke="#645D70" stroke-width="1.45455" stroke-miterlimit="10" stroke-linecap="round"/>
<path d="M37.6016 42.4053L42.4016 46.4053" stroke="#645D70" stroke-width="1.45455" stroke-miterlimit="10" stroke-linecap="round"/>
<path d="M78.4023 82.4053L83.4133 86.6855" stroke="#645D70" stroke-width="1.45455" stroke-miterlimit="10" stroke-linecap="round"/>
<path d="M28.002 64.8057H34.402" stroke="#645D70" stroke-width="1.45455" stroke-miterlimit="10" stroke-linecap="round"/>
<path d="M86.4004 64.8057H92.7985" stroke="#645D70" stroke-width="1.45455" stroke-miterlimit="10" stroke-linecap="round"/>
<path d="M39.1609 87.6179L43.9113 82.4108" stroke="#645D70" stroke-width="1.45455" stroke-miterlimit="10" stroke-linecap="round"/>
<path d="M79.2014 48.0059L83.8916 43.6793" stroke="#645D70" stroke-width="1.45455" stroke-miterlimit="10" stroke-linecap="round"/>
<path d="M24.1363 39.3157C23.2558 39.8171 22.143 39.4502 21.7149 38.5269C17.6854 29.8135 20.1068 19.8222 28.6306 14.9488C37.1544 10.0754 46.9929 13.0594 52.4533 20.9595C53.0281 21.7911 52.7835 22.9407 51.903 23.4421L24.1363 39.3157Z" fill="#55246C"/>
<path d="M29.1568 12.5372L26.2742 14.1847C25.7582 14.4797 25.5789 15.1371 25.8739 15.6531L26.0984 16.0459C26.3933 16.562 27.0507 16.7412 27.5667 16.4463L30.4494 14.7987C30.9654 14.5038 31.1446 13.8464 30.8497 13.3303L30.6252 12.9375C30.3302 12.4215 29.6728 12.2422 29.1568 12.5372Z" fill="#55246C"/>
<path d="M94.9752 39.3157C95.8557 39.8171 96.9685 39.4502 97.3966 38.5269C101.432 29.8135 99.0047 19.8222 90.487 14.9488C81.9632 10.0754 72.1247 13.0594 66.6643 20.9595C66.0896 21.7911 66.3341 22.9407 67.2147 23.4421L94.9813 39.3157H94.9752Z" fill="#55246C"/>
<path d="M88.6615 14.7955L91.5442 16.443C92.0602 16.738 92.7176 16.5587 93.0125 16.0427L93.2371 15.6499C93.532 15.1338 93.3528 14.4764 92.8367 14.1815L89.9541 12.5339C89.4381 12.239 88.7807 12.4182 88.4858 12.9343L88.2612 13.3271C87.9663 13.8431 88.1455 14.5005 88.6615 14.7955Z" fill="#55246C"/>
<path d="M57.6962 18.4106H62.3062C63.2433 18.4106 63.998 19.1431 63.998 20.0389V23.2106H55.998V20.0389C55.998 19.137 56.7591 18.4106 57.6899 18.4106H57.6962Z" fill="#BD84D6"/>
<path d="M56.6048 65.9968L48.3809 75.6245C47.7822 76.3254 47.8416 77.3588 48.5135 77.9327C49.1854 78.5067 50.2154 78.4037 50.8141 77.7028L59.0379 68.0752C59.6366 67.3743 59.5773 66.3408 58.9054 65.7669C58.2335 65.193 57.2035 65.2959 56.6048 65.9968Z" fill="#55246C"/>
<path d="M61.5996 63.1941V45.6264C61.5996 44.7338 60.8833 44.0103 59.9996 44.0103C59.116 44.0103 58.3996 44.7338 58.3996 45.6264V63.1941C58.3996 64.0867 59.116 64.8103 59.9996 64.8103C60.8833 64.8103 61.5996 64.0867 61.5996 63.1941Z" fill="#55246C"/>
<path d="M59.998 68.8105C62.2072 68.8105 63.998 67.0197 63.998 64.8106C63.998 62.6014 62.2072 60.8105 59.998 60.8105C57.7889 60.8105 55.998 62.6014 55.998 64.8106C55.998 67.0197 57.7889 68.8105 59.998 68.8105Z" fill="#645D70"/>
</svg>
