<svg width="120" height="120" viewBox="0 0 120 120" fill="none" xmlns="http://www.w3.org/2000/svg">
<path d="M115.041 92.3188H19.1067C18.3712 95.6446 17.9875 97.3075 17.252 100.633H113.187C113.922 97.3075 114.306 95.6446 115.041 92.3188Z" fill="#55246C"/>
<path d="M38.5482 37.0518H88.2744C92.2077 37.0518 94.6861 40.2336 93.8066 44.1669C90.2251 60.22 86.6435 76.2731 83.0779 92.3262H19.1055C22.687 76.2731 26.2686 60.22 29.8342 44.1669C30.7136 40.2336 34.5989 37.0518 38.5322 37.0518H38.5482Z" fill="#FFDA7C"/>
<path d="M115.041 92.3242H83.0625C86.4042 77.3104 88.0831 69.7955 91.4248 54.7817H113.154C116.608 54.7817 119.086 57.1641 119.118 60.5378C119.166 65.7503 119.182 68.3405 119.23 73.553C117.551 81.0679 116.72 84.8093 115.041 92.3242Z" fill="#645D70"/>
<path d="M92.3184 71.6148C93.4856 66.4023 94.0612 63.8121 95.2124 58.5996H110.946C113.088 58.5996 114.607 60.0706 114.639 62.1652L114.751 71.6148H92.3184Z" fill="white"/>
<path d="M54.5241 92.3133C53.149 87.7404 49.0398 84.6226 43.5235 84.6226C38.0073 84.6226 32.507 87.7404 29.0854 92.3133C27.5984 94.312 26.4951 96.5664 25.9515 98.9808C25.8236 99.5404 25.7436 100.1 25.6797 100.644H54.2043C54.3802 100.1 54.5401 99.5404 54.668 98.9808C55.2116 96.5664 55.1157 94.312 54.5081 92.3133H54.5241Z" fill="#55246C"/>
<path d="M38.1363 108.777C43.5406 108.777 48.913 104.396 50.1121 98.9756C51.3113 93.5713 47.9056 89.1743 42.5013 89.1743C37.097 89.1743 31.7247 93.5553 30.5255 98.9756C29.3263 104.38 32.732 108.777 38.1363 108.777Z" fill="#662B80"/>
<path d="M39.2056 103.95C41.9557 103.95 44.6738 101.728 45.2814 98.9775C45.889 96.2274 44.1622 94.0049 41.428 94.0049C38.6939 94.0049 35.9598 96.2274 35.3522 98.9775C34.7446 101.728 36.4714 103.95 39.2056 103.95Z" fill="white"/>
<path d="M110.147 92.3133C108.772 87.7404 104.663 84.6226 99.1466 84.6226C93.6304 84.6226 88.1301 87.7404 84.7084 92.3133C83.2214 94.312 82.1182 96.5664 81.5745 98.9808C81.4466 99.5404 81.3667 100.1 81.3027 100.644H109.827C110.003 100.1 110.163 99.5404 110.291 98.9808C110.835 96.5664 110.739 94.312 110.131 92.3133H110.147Z" fill="#55246C"/>
<path d="M93.7632 108.777C99.1676 108.777 104.54 104.396 105.739 98.9756C106.938 93.5713 103.533 89.1743 98.1283 89.1743C92.7239 89.1743 87.3516 93.5553 86.1524 98.9756C84.9532 104.38 88.3589 108.777 93.7632 108.777Z" fill="#662B80"/>
<path d="M94.8325 103.95C97.5826 103.95 100.301 101.728 100.908 98.9775C101.516 96.2274 99.7891 94.0049 97.055 94.0049C94.3208 94.0049 91.5867 96.2274 90.9791 98.9775C90.3715 101.728 92.0984 103.95 94.8325 103.95Z" fill="white"/>
<g filter="url(#filter0_d_1380_8978)">
<path d="M40.5325 58.7691C53.7715 58.7691 64.5162 48.0244 64.5162 34.7854C64.5162 21.5464 53.7715 10.8018 40.5325 10.8018C27.2935 10.8018 16.5488 21.5464 16.5488 34.7854C16.5488 48.0244 27.2935 58.7691 40.5325 58.7691Z" fill="#662B80"/>
<path d="M40.5337 55.2168C51.822 55.2168 60.9678 46.0711 60.9678 34.7827C60.9678 23.4944 51.822 14.3486 40.5337 14.3486C29.2454 14.3486 20.0996 23.4944 20.0996 34.7827C20.0996 46.0711 29.2454 55.2168 40.5337 55.2168Z" fill="white"/>
<g opacity="0.4">
<path d="M20.0957 34.7891H40.5298V14.355C29.2415 14.355 20.0957 23.5008 20.0957 34.7891Z" fill="#C18DD9"/>
</g>
<path d="M40.5312 16.5698V20.1194" stroke="#645D70" stroke-width="1.20968" stroke-miterlimit="10" stroke-linecap="round"/>
<path d="M40.5312 49.4512V53.0008" stroke="#645D70" stroke-width="1.20968" stroke-miterlimit="10" stroke-linecap="round"/>
<path d="M28.0957 22.3467L30.7659 24.5692" stroke="#645D70" stroke-width="1.20968" stroke-miterlimit="10" stroke-linecap="round"/>
<path d="M50.7363 44.5591L53.5184 46.9415" stroke="#645D70" stroke-width="1.20968" stroke-miterlimit="10" stroke-linecap="round"/>
<path d="M22.752 34.7905H26.3015" stroke="#645D70" stroke-width="1.20968" stroke-miterlimit="10" stroke-linecap="round"/>
<path d="M55.1797 34.7905H58.7293" stroke="#645D70" stroke-width="1.20968" stroke-miterlimit="10" stroke-linecap="round"/>
<path d="M28.957 47.4531L31.5952 44.5591" stroke="#645D70" stroke-width="1.20968" stroke-miterlimit="10" stroke-linecap="round"/>
<path d="M51.1797 25.4701L53.7859 23.0718" stroke="#645D70" stroke-width="1.20968" stroke-miterlimit="10" stroke-linecap="round"/>
<path d="M40.5427 33.8989H33.5074C32.9958 33.8989 32.5801 34.3146 32.5801 34.7943C32.5801 35.274 32.9958 35.6897 33.5074 35.6737H40.5427C41.0543 35.6737 41.47 35.258 41.47 34.7783C41.47 34.2826 41.0543 33.8829 40.5427 33.8989Z" fill="#55246C"/>
<path d="M41.406 33.887V24.1337C41.406 23.638 41.0063 23.2383 40.5106 23.2383C40.015 23.2383 39.6152 23.638 39.6152 24.1337V33.887C39.6152 34.3827 40.015 34.7824 40.5106 34.7824C41.0063 34.7824 41.406 34.3827 41.406 33.887Z" fill="#55246C"/>
<path d="M40.5311 36.9982C41.7622 36.9982 42.7536 36.0069 42.7536 34.7757C42.7536 33.5445 41.7622 32.5532 40.5311 32.5532C39.2999 32.5532 38.3086 33.5445 38.3086 34.7757C38.3086 36.0069 39.2999 36.9982 40.5311 36.9982Z" fill="#645D70"/>
</g>
<path d="M19.5228 65.1992H10.8887" stroke="#645D70" stroke-width="2.41935" stroke-miterlimit="10" stroke-linecap="round"/>
<path d="M20.1453 73.2598H2.01367" stroke="#645D70" stroke-width="2.41935" stroke-miterlimit="10" stroke-linecap="round"/>
<path d="M16.8337 81.311H6.04102" stroke="#645D70" stroke-width="2.41935" stroke-miterlimit="10" stroke-linecap="round"/>
<defs>
<filter id="filter0_d_1380_8978" x="13.8016" y="8.05454" width="55.2927" height="55.2932" filterUnits="userSpaceOnUse" color-interpolation-filters="sRGB">
<feFlood flood-opacity="0" result="BackgroundImageFix"/>
<feColorMatrix in="SourceAlpha" type="matrix" values="0 0 0 0 0 0 0 0 0 0 0 0 0 0 0 0 0 0 127 0" result="hardAlpha"/>
<feOffset dx="0.915741" dy="0.915741"/>
<feGaussianBlur stdDeviation="1.83148"/>
<feComposite in2="hardAlpha" operator="out"/>
<feColorMatrix type="matrix" values="0 0 0 0 0 0 0 0 0 0 0 0 0 0 0 0 0 0 0.1 0"/>
<feBlend mode="normal" in2="BackgroundImageFix" result="effect1_dropShadow_1380_8978"/>
<feBlend mode="normal" in="SourceGraphic" in2="effect1_dropShadow_1380_8978" result="shape"/>
</filter>
</defs>
</svg>
