<svg width="120" height="120" viewBox="0 0 120 120" fill="none" xmlns="http://www.w3.org/2000/svg">
<path d="M16.0512 24.5566H69.5465C73.7709 24.5566 77.1993 27.9851 77.1993 32.2094V84.0084H8.39844V32.2094C8.39844 27.9851 11.8269 24.5566 16.0512 24.5566Z" fill="#FFDA7C"/>
<path d="M111.598 84.01H77.1992V43.6289H100.568C104.29 43.6289 107.519 46.1951 108.359 49.8225L111.598 63.822V84.0125V84.01Z" fill="#645D70"/>
<path d="M82.1914 61.7469V47.75H99.1193C101.42 47.75 103.418 49.3367 103.938 51.5789L106.321 61.7469H82.194H82.1914Z" fill="white"/>
<path d="M46.4948 84.0043C43.9107 79.0836 38.7553 75.7266 32.8117 75.7266C26.868 75.7266 21.7126 79.0836 19.1285 84.0043C18.0036 86.1471 17.3633 88.5858 17.3633 91.1749C17.3633 91.777 17.4015 92.3713 17.4679 92.9555H48.1529C48.2192 92.3713 48.2575 91.777 48.2575 91.1749C48.2575 88.5858 47.6172 86.1471 46.4922 84.0043H46.4948Z" fill="#55246C"/>
<path d="M106.327 84.0043C103.743 79.0836 98.5873 75.7266 92.6437 75.7266C86.7 75.7266 81.5446 79.0836 78.9605 84.0043C77.8356 86.1471 77.1953 88.5858 77.1953 91.1749C77.1953 91.777 77.2336 92.3713 77.2999 92.9555H107.985C108.051 92.3713 108.089 91.777 108.089 91.1749C108.089 88.5858 107.449 86.1471 106.324 84.0043H106.327Z" fill="#55246C"/>
<path d="M111.598 84.0039H8.39844V92.9551H111.598V84.0039Z" fill="#55246C"/>
<path d="M53.1185 24.5566H32.4785V45.1949L35.9185 45.1966L39.3585 45.1963L42.7985 45.196L46.2385 45.1956L49.6785 45.1953L53.1185 45.1949V24.5566Z" fill="#55246C"/>
<path d="M32.5902 103.165C38.8079 103.165 43.8484 98.1248 43.8484 91.9071C43.8484 85.6894 38.8079 80.6489 32.5902 80.6489C26.3725 80.6489 21.332 85.6894 21.332 91.9071C21.332 98.1248 26.3725 103.165 32.5902 103.165Z" fill="#662B80"/>
<path d="M32.6287 97.1144C35.4785 97.1144 37.7888 94.8042 37.7888 91.9544C37.7888 89.1046 35.4785 86.7944 32.6287 86.7944C29.779 86.7944 27.4688 89.1046 27.4688 91.9544C27.4688 94.8042 29.779 97.1144 32.6287 97.1144Z" fill="white"/>
<path d="M92.4301 103.166C98.6478 103.166 103.688 98.1253 103.688 91.9076C103.688 85.6899 98.6478 80.6494 92.4301 80.6494C86.2123 80.6494 81.1719 85.6899 81.1719 91.9076C81.1719 98.1253 86.2123 103.166 92.4301 103.166Z" fill="#662B80"/>
<path d="M92.4647 97.1149C95.3145 97.1149 97.6247 94.8047 97.6247 91.9549C97.6247 89.1051 95.3145 86.7949 92.4647 86.7949C89.6149 86.7949 87.3047 89.1051 87.3047 91.9549C87.3047 94.8047 89.6149 97.1149 92.4647 97.1149Z" fill="white"/>
</svg>
