<svg width="120" height="120" viewBox="0 0 120 120" fill="none" xmlns="http://www.w3.org/2000/svg">
<g clip-path="url(#clip0_954_5866)">
<path d="M109.36 93.6167H10.8008V98.1183H109.36V93.6167Z" fill="#662B80"/>
<path d="M109.36 104.75H10.8008V109.252H109.36V104.75Z" fill="#662B80"/>
<path d="M25.7277 98.1182H15.0664V104.75H25.7277V98.1182Z" fill="#55246C"/>
<path d="M65.4132 98.1182H54.752V104.75H65.4132V98.1182Z" fill="#55246C"/>
<path d="M104.737 98.1182H94.0762V104.75H104.737V98.1182Z" fill="#55246C"/>
<path d="M89.4745 10.7998H30.5255C24.1601 10.7998 19 15.9599 19 22.3253V81.2743C19 87.6397 24.1601 92.7998 30.5255 92.7998H89.4745C95.8399 92.7998 101 87.6397 101 81.2743V22.3253C101 15.9599 95.8399 10.7998 89.4745 10.7998Z" fill="#BD84D6"/>
<path d="M71.2425 10.7998H51.5625V30.4798H71.2425V10.7998Z" fill="#55246C"/>
<path d="M76.1821 63.2798L70.6836 68.8848H73.4595V79.6798H78.9048V68.8848H81.5742L76.1821 63.2798Z" fill="white"/>
<path d="M88.2506 63.2798L82.7559 68.8848H85.5279V79.6798H90.9732V68.8848H93.6427L88.2506 63.2798Z" fill="white"/>
<path d="M93.6436 81.3198H70.6836V84.5998H93.6436V81.3198Z" fill="white"/>
</g>
<defs>
<clipPath id="clip0_954_5866">
<rect width="98.4" height="98.4" fill="white" transform="translate(10.8008 10.7998)"/>
</clipPath>
</defs>
</svg>
