<svg width="238" height="120" viewBox="0 0 238 120" fill="none" xmlns="http://www.w3.org/2000/svg">
<path d="M232.938 70.8994C229.803 69.575 224.567 69.8423 218.642 73.354L218.678 73.2689C218.678 73.2689 229.226 45.5767 229.57 44.6532C230.897 41.1172 230.553 38.2982 229.275 36.5727C228.808 35.9409 227.529 34.6043 225.034 34.5435C223.227 34.4949 221.272 35.1875 220.227 35.7586C219.637 36.0867 219.65 36.6821 219.662 37.0831C219.711 38.3954 219.207 41.0929 218.531 43.0128C216.564 48.5415 214.093 54.0824 213.429 55.5405C211.942 58.8213 207.922 66.8896 202.649 71.2397C200.215 73.2567 197.953 74.3503 195.998 74.3625C193.085 74.3382 192.839 69.8302 194.794 65.0791C194.794 65.0791 202.526 45.7468 202.686 45.3215C206.41 35.6006 199.6 32.5143 193.06 35.8072C192.667 36.0138 192.224 36.4148 192.532 36.7428C193.454 37.7149 193.011 40.3882 191.499 44.8719C191.499 44.8719 187.209 56.2574 183.878 63.1349C177.928 75.4075 167.934 75.772 172.261 63.5724C173.318 60.5832 190.676 13.8381 190.676 13.8381C192.63 8.30939 193.245 4.79774 190.688 2.41613C188.131 0.0345235 183.964 0.520566 181.001 2.11235C180.583 2.34322 180.055 2.81711 180.423 3.10874C181.812 4.23879 181.296 7.11859 179.895 11.6509C176.121 22.198 163.336 57.3389 160.288 66.2577C157.547 74.241 161.677 78.4452 167.295 78.5911C171.499 78.6883 177.866 76.4768 184.05 68.8459C184.197 72.6856 185.894 77.1086 192.384 78.4088V78.4331C200.547 80.0127 205.697 74.3868 207.738 72.0902C208.353 71.4098 209.287 70.3405 209.791 69.7572L209.336 71.2518C208.463 73.6456 207.849 75.5168 207.049 77.7526C206.877 78.2265 206.705 78.7126 206.509 79.2229C199.735 84.4357 192.397 91.1066 187.787 96.1736C179.44 105.323 178.543 116.381 186.299 118.568C197.879 121.824 205.906 107.122 213.466 86.9631L216.54 78.8948L216.957 77.7891V77.7405C227.333 70.7901 234.327 77.2423 234.598 80.8269C234.634 81.3251 235.347 81.4101 235.642 81.0942C238.679 77.8741 237.253 72.71 232.938 70.8994ZM205.009 85.262C198.617 101.629 192.692 113.161 187.037 112.602C184.541 112.359 184.173 109.625 185.623 106.186C189.164 97.8626 201.936 87.3277 205.12 84.7881L205.009 85.262Z" fill="white"/>
<path d="M160.026 35.7312C154.691 33.3374 148.36 36.2901 140.026 46.6793H140.001C142.091 41.4908 142.46 38.1249 140.37 36.0957C137.727 33.5318 132.761 35.1479 131.298 35.9013C130.782 36.1686 130.437 36.4238 130.659 36.9098C131.581 38.9876 130.081 43.4349 128.409 48.1374C127.77 49.9357 126.11 54.5045 124.143 59.1098C120.96 66.5462 114.408 74.092 109.343 72.7068C107.61 72.2329 107.02 69.6812 107.892 67.2388L116.067 43.7995C119.116 33.8964 110.953 33.2159 106.417 35.7069C105.827 36.0349 105.36 36.4238 105.618 36.7883C106.614 38.1735 105.68 41.9403 105.09 43.5443C102.791 49.8507 100.431 58.9397 95.3415 66.1938C92.4896 70.629 88.4821 73.5574 85.4704 73.3873C82.3603 73.0713 81.1556 69.6933 83.2946 63.0953C84.1428 60.4828 88.3346 49.0852 90.6456 41.831C92.846 34.917 85.0278 33.2767 80.1722 35.8284C79.7788 36.0349 79.3117 36.4359 79.6067 36.7519C80.5041 37.7361 80.246 40.4822 78.7585 44.6622C76.9884 49.6563 74.0873 57.3843 72.4032 64.8451C70.3872 73.8247 74.2717 78.029 80.4795 78.6001C86.7734 79.1833 92.8092 74.979 96.9272 69.7906C95.8455 75.9754 100.677 78.4664 103.369 78.7094C108.114 79.1347 113.498 76.7045 118.821 71.6254C117.911 75.9147 119.816 78.6001 124.5 78.6244C126.799 78.6244 129.147 77.6523 129.577 76.9111C129.638 76.8139 129.663 76.7288 129.614 76.6437C129.528 76.4858 129.147 75.939 129.933 73.5817C133.166 63.9216 136.399 56.8861 139.509 52.6819C142.988 47.9794 147.844 44.1883 151.163 44.5164C154.408 44.8444 154.593 48.587 153.462 50.3246C152.896 51.1387 153.339 51.5397 153.917 51.4911C163.333 50.7377 166.898 38.8297 160.014 35.7433L160.026 35.7312Z" fill="white"/>
<path d="M89.52 81.875C87.0738 84.3052 82.3165 86.0307 77.8542 85.7755C69.9868 85.3138 64.9222 81.146 60.0789 72.1663C55.678 64.0008 49.7038 50.6954 47.9213 45.993C62.3038 39.6623 78.604 27.2682 80.8045 18.5316C81.3576 16.3322 80.8045 13.9628 79.3785 13.015C78.5795 12.4925 78.0878 12.6626 77.7313 13.1122C74.9654 23.2097 50.7732 38.8724 37.2266 42.0925C41.8733 29.1152 46.5814 15.8097 46.8641 14.7162C49.6792 3.75591 43.2378 0.292858 36.3784 0.997619C18.3695 2.86888 -1.10224 25.8344 0.753968 44.9601C0.938359 46.7949 2.04471 50.4281 5.37605 51.1693C7.99441 51.7404 10.1579 50.2701 10.6988 48.2045C10.7726 47.9371 10.5144 47.6941 10.2563 47.7427C9.14993 47.9857 6.86347 46.1874 6.3103 42.9674C3.16335 24.4734 25.1797 4.44852 34.6943 6.95163C36.6734 7.47413 37.3495 9.88004 36.108 13.574C32.5799 23.4892 19.5127 60.4527 16.1691 69.9791C12.3952 80.745 19.1439 85.0343 26.4704 82.7377C27.1957 82.5069 27.4293 81.8629 26.9867 81.5591C25.0936 80.2589 25.2903 75.7387 28.0193 67.4882C28.1914 66.9657 33.9444 51.303 34.1534 50.7076C35.4442 50.2458 36.7226 49.8084 37.7798 49.4074C50.8716 79.943 57.8662 92.2885 76.1578 91.049C84.5292 90.478 89.3479 84.8885 90.5649 82.8106C90.9829 82.1059 90.0609 81.2918 89.5077 81.8507L89.52 81.875Z" fill="white"/>
</svg>
