<svg width="728" height="367" viewBox="0 0 728 367" fill="none" xmlns="http://www.w3.org/2000/svg">
<path d="M713.864 217.641C704.231 213.542 688.139 214.369 669.932 225.238L670.045 224.975C670.045 224.975 702.456 139.262 703.514 136.403C707.593 125.459 706.536 116.733 702.607 111.392C701.172 109.437 697.243 105.3 689.575 105.112C684.022 104.961 678.016 107.105 674.805 108.873C672.992 109.888 673.029 111.731 673.067 112.972C673.218 117.034 671.67 125.383 669.592 131.326C663.548 148.438 655.955 165.589 653.915 170.102C649.345 180.257 636.992 205.23 620.787 218.694C613.308 224.937 606.357 228.322 600.351 228.36C591.398 228.285 590.643 214.331 596.649 199.626C596.649 199.626 620.409 139.788 620.9 138.472C632.346 108.384 611.419 98.8307 591.323 109.023C590.114 109.662 588.754 110.904 589.698 111.919C592.532 114.928 591.172 123.202 586.525 137.08C586.525 137.08 573.342 172.321 563.105 193.608C544.822 231.594 514.111 232.723 527.408 194.962C530.656 185.71 583.994 41.0239 583.994 41.0239C590.001 23.9113 591.889 13.042 584.032 5.67042C576.175 -1.70116 563.369 -0.196755 554.266 4.73017C552.981 5.44476 551.357 6.91156 552.49 7.8142C556.759 11.3119 555.172 20.2255 550.866 34.2541C539.269 66.8997 499.983 175.668 490.615 203.274C482.192 227.984 494.884 240.997 512.147 241.448C525.066 241.749 544.633 234.904 563.634 211.285C564.087 223.17 569.3 236.86 589.245 240.884V240.959C614.328 245.849 630.155 228.435 636.426 221.327C638.314 219.221 641.185 215.911 642.734 214.106L641.336 218.732C638.654 226.141 636.766 231.933 634.31 238.853C633.781 240.32 633.253 241.824 632.648 243.404C611.834 259.539 589.283 280.187 575.117 295.87C549.468 324.19 546.711 358.416 570.547 365.186C606.13 375.265 630.797 329.757 654.029 267.362L663.472 242.388L664.757 238.966V238.816C696.639 217.303 718.132 237.274 718.964 248.368C719.077 249.911 721.268 250.174 722.174 249.196C731.505 239.229 727.123 223.245 713.864 217.641ZM628.04 262.096C608.397 312.757 590.189 348.449 572.813 346.719C565.145 345.967 564.012 337.504 568.469 326.861C579.348 301.098 618.596 268.49 628.38 260.629L628.04 262.096Z" fill="#EAEAEA" fill-opacity="0.2"/>
<path d="M489.808 108.793C473.413 101.383 453.959 110.523 428.348 142.679H428.273C434.694 126.62 435.828 116.202 429.406 109.921C421.284 101.985 406.023 106.987 401.528 109.319C399.942 110.147 398.884 110.936 399.564 112.441C402.397 118.872 397.788 132.637 392.651 147.193C390.687 152.759 385.587 166.9 379.543 181.155C369.76 204.172 349.626 227.528 334.062 223.24C328.736 221.773 326.923 213.875 329.605 206.316L354.725 133.766C364.093 103.114 339.011 101.007 325.072 108.717C323.259 109.733 321.823 110.936 322.617 112.065C325.676 116.352 322.806 128.011 320.992 132.976C313.929 152.496 306.676 180.628 291.037 203.081C282.273 216.809 269.959 225.873 260.704 225.346C251.147 224.369 247.445 213.913 254.018 193.491C256.624 185.404 269.505 150.126 276.607 127.673C283.369 106.273 259.344 101.195 244.423 109.094C243.214 109.733 241.779 110.974 242.685 111.952C245.443 114.998 244.65 123.498 240.079 136.436C234.639 151.894 225.725 175.814 220.549 198.906C214.354 226.7 226.291 239.713 245.367 241.481C264.708 243.286 283.255 230.273 295.91 214.214C292.586 233.357 307.431 241.067 315.704 241.82C330.285 243.136 346.83 235.614 363.187 219.893C360.391 233.169 366.246 241.481 380.639 241.556C387.703 241.556 394.918 238.548 396.24 236.253C396.428 235.952 396.504 235.689 396.353 235.426C396.089 234.937 394.918 233.245 397.335 225.948C407.27 196.048 417.205 174.272 426.762 161.259C437.452 146.704 452.373 134.969 462.572 135.985C472.545 137 473.111 148.584 469.636 153.962C467.898 156.482 469.258 157.723 471.034 157.573C499.969 155.241 510.924 118.383 489.77 108.83L489.808 108.793Z" fill="#EAEAEA" fill-opacity="0.2"/>
<path d="M273.15 251.611C265.632 259.133 251.014 264.474 237.301 263.684C213.126 262.255 197.562 249.355 182.679 221.561C169.156 196.287 150.797 155.104 145.32 140.549C189.516 120.954 239.606 82.5916 246.367 55.5499C248.067 48.7425 246.367 41.4085 241.985 38.4749C239.53 36.8577 238.019 37.3842 236.924 38.7758C228.424 70.0298 154.084 118.509 112.456 128.476C126.735 88.3083 141.202 47.1253 142.071 43.7403C150.722 9.81602 130.928 -0.902858 109.849 1.27853C54.5095 7.07049 -5.32568 78.1536 0.378303 137.352C0.944924 143.031 4.34465 154.276 14.5816 156.571C22.6276 158.338 29.276 153.788 30.9381 147.394C31.1647 146.566 30.3714 145.814 29.5782 145.965C26.1784 146.717 19.1523 141.151 17.4525 131.184C7.78215 73.9413 75.4367 11.9598 104.674 19.7075C110.756 21.3247 112.834 28.7715 109.018 40.205C98.1771 70.8949 58.0225 185.305 47.7478 214.791C36.151 248.114 56.8893 261.39 79.403 254.282C81.6317 253.567 82.3494 251.574 80.9896 250.634C75.1723 246.609 75.7766 232.618 84.1626 207.081C84.6915 205.464 102.37 156.984 103.012 155.142C106.979 153.712 110.907 152.358 114.156 151.117C154.386 245.631 175.88 283.843 232.088 280.007C257.813 278.239 272.621 260.939 276.36 254.507C277.645 252.326 274.812 249.806 273.112 251.536L273.15 251.611Z" fill="#EAEAEA" fill-opacity="0.2"/>
</svg>
