<svg width="100" height="100" viewBox="0 0 100 100" fill="none" xmlns="http://www.w3.org/2000/svg">
<path d="M13.3773 20.4646H57.9567C61.477 20.4646 64.334 23.3216 64.334 26.8419V70.0077H7V26.8419C7 23.3216 9.85703 20.4646 13.3773 20.4646Z" fill="#FFDA7C"/>
<path d="M92.9991 70.009H64.3331V36.3582H83.8073C86.9088 36.3582 89.6 38.4967 90.2994 41.5195L92.9991 53.1857V70.0112V70.009Z" fill="#645D70"/>
<path d="M68.4933 51.4563V39.7922H82.5999C84.5174 39.7922 86.1818 41.1145 86.6155 42.983L88.601 51.4563H68.4955H68.4933Z" fill="white"/>
<path d="M38.7478 70.0043C36.5944 65.9037 32.2982 63.1062 27.3452 63.1062C22.3922 63.1062 18.096 65.9037 15.9426 70.0043C15.0051 71.79 14.4716 73.8222 14.4716 75.9798C14.4716 76.4815 14.5034 76.9768 14.5587 77.4636H40.1296C40.1848 76.9768 40.2167 76.4815 40.2167 75.9798C40.2167 73.8222 39.6831 71.79 38.7457 70.0043H38.7478Z" fill="#55246C"/>
<path d="M88.607 70.0043C86.4536 65.9037 82.1574 63.1062 77.2044 63.1062C72.2514 63.1062 67.9552 65.9037 65.8018 70.0043C64.8643 71.79 64.3307 73.8222 64.3307 75.9798C64.3307 76.4815 64.3626 76.9768 64.4179 77.4636H89.9887C90.044 76.9768 90.0759 76.4815 90.0759 75.9798C90.0759 73.8222 89.5423 71.79 88.6049 70.0043H88.607Z" fill="#55246C"/>
<path d="M93 70.0042H7V77.4635H93V70.0042Z" fill="#55246C"/>
<path d="M44.2669 20.4646H27.0669V37.6632L29.9336 37.6646L32.8002 37.6643L35.6669 37.664L38.5336 37.6637L41.4002 37.6635L44.2669 37.6632V20.4646Z" fill="#55246C"/>
<path d="M27.1611 85.9719C32.3426 85.9719 36.5429 81.7715 36.5429 76.5901C36.5429 71.4086 32.3426 67.2083 27.1611 67.2083C21.9797 67.2083 17.7793 71.4086 17.7793 76.5901C17.7793 81.7715 21.9797 85.9719 27.1611 85.9719Z" fill="#662B80"/>
<path d="M27.1916 80.9293C29.5664 80.9293 31.4916 79.0042 31.4916 76.6294C31.4916 74.2545 29.5664 72.3293 27.1916 72.3293C24.8168 72.3293 22.8916 74.2545 22.8916 76.6294C22.8916 79.0042 24.8168 80.9293 27.1916 80.9293Z" fill="white"/>
<path d="M77.0257 85.9719C82.2071 85.9719 86.4075 81.7715 86.4075 76.5901C86.4075 71.4086 82.2071 67.2083 77.0257 67.2083C71.8442 67.2083 67.6439 71.4086 67.6439 76.5901C67.6439 81.7715 71.8442 85.9719 77.0257 85.9719Z" fill="#662B80"/>
<path d="M77.0555 80.9293C79.4303 80.9293 81.3555 79.0042 81.3555 76.6294C81.3555 74.2545 79.4303 72.3293 77.0555 72.3293C74.6807 72.3293 72.7555 74.2545 72.7555 76.6294C72.7555 79.0042 74.6807 80.9293 77.0555 80.9293Z" fill="white"/>
</svg>
