<svg width="100" height="100" viewBox="0 0 100 100" fill="none" xmlns="http://www.w3.org/2000/svg">
<g clip-path="url(#clip0_954_5443)">
<path d="M91.1324 78.0139H9V81.7653H91.1324V78.0139Z" fill="#662B80"/>
<path d="M91.1324 87.2922H9V91.0436H91.1324V87.2922Z" fill="#662B80"/>
<path d="M21.4387 81.7649H12.5543V87.2918H21.4387V81.7649Z" fill="#55246C"/>
<path d="M54.5098 81.7649H45.6253V87.2918H54.5098V81.7649Z" fill="#55246C"/>
<path d="M87.2812 81.7649H78.3968V87.2918H87.2812V81.7649Z" fill="#55246C"/>
<path d="M74.5621 9H25.4379C20.1334 9 15.8333 13.3001 15.8333 18.6046V67.7288C15.8333 73.0332 20.1334 77.3333 25.4379 77.3333H74.5621C79.8666 77.3333 84.1667 73.0332 84.1667 67.7288V18.6046C84.1667 13.3001 79.8666 9 74.5621 9Z" fill="#BD84D6"/>
<path d="M59.3691 9H42.9691V25.4H59.3691V9Z" fill="#55246C"/>
<path d="M63.4841 52.7334L58.902 57.4043H61.2153V66.4001H65.753V57.4043H67.9775L63.4841 52.7334Z" fill="white"/>
<path d="M73.5414 52.7334L68.9625 57.4043H71.2726V66.4001H75.8103V57.4043H78.0348L73.5414 52.7334Z" fill="white"/>
<path d="M78.0354 67.7668H58.902V70.5002H78.0354V67.7668Z" fill="white"/>
</g>
<defs>
<clipPath id="clip0_954_5443">
<rect width="82" height="82" fill="white" transform="translate(9 9)"/>
</clipPath>
</defs>
</svg>
