<svg width="100" height="100" viewBox="0 0 100 100" fill="none" xmlns="http://www.w3.org/2000/svg">
<path d="M31.1485 80.6711L34.028 82.7763L29.932 88.3788C29.3516 89.1727 28.2337 89.3464 27.4398 88.766C26.6459 88.1856 26.4722 87.0676 27.0526 86.2737L31.1485 80.6711V80.6711Z" fill="#55246C"/>
<path d="M67.2292 82.7754L70.1086 80.6703L74.2045 86.2728C74.785 87.0667 74.6113 88.1847 73.8174 88.7651C73.0235 89.3455 71.9055 89.1718 71.3251 88.3779L67.2292 82.7754V82.7754Z" fill="#55246C"/>
<path d="M50 90.0017C69.8822 90.0017 86 73.884 86 54.0017C86 34.1195 69.8822 18.0017 50 18.0017C30.1177 18.0017 14 34.1195 14 54.0017C14 73.884 30.1177 90.0017 50 90.0017Z" fill="#BD84D6"/>
<path d="M50 84.6683C66.9367 84.6683 80.6667 70.9384 80.6667 54.0016C80.6667 37.0649 66.9367 23.335 50 23.335C33.0633 23.335 19.3333 37.0649 19.3333 54.0016C19.3333 70.9384 33.0633 84.6683 50 84.6683Z" fill="white"/>
<g opacity="0.4">
<path d="M49.9998 23.3386C33.0664 23.3386 19.3331 37.072 19.3331 54.0053C19.3331 62.672 23.3331 71.3386 29.3331 76.672L49.9998 54.0053V23.3386Z" fill="#C18DD9"/>
</g>
<path d="M49.9998 26.6711V32.0045" stroke="#645D70" stroke-width="1.45455" stroke-miterlimit="10" stroke-linecap="round"/>
<path d="M49.9998 76.0044V81.3362" stroke="#645D70" stroke-width="1.45455" stroke-miterlimit="10" stroke-linecap="round"/>
<path d="M31.3331 35.3379L35.3331 38.6712" stroke="#645D70" stroke-width="1.45455" stroke-miterlimit="10" stroke-linecap="round"/>
<path d="M65.3331 68.6711L69.5089 72.238" stroke="#645D70" stroke-width="1.45455" stroke-miterlimit="10" stroke-linecap="round"/>
<path d="M23.3331 54.0044H28.6664" stroke="#645D70" stroke-width="1.45455" stroke-miterlimit="10" stroke-linecap="round"/>
<path d="M71.9998 54.0044H77.3316" stroke="#645D70" stroke-width="1.45455" stroke-miterlimit="10" stroke-linecap="round"/>
<path d="M32.6335 73.0145L36.5922 68.6752" stroke="#645D70" stroke-width="1.45455" stroke-miterlimit="10" stroke-linecap="round"/>
<path d="M65.9996 40.0048L69.9081 36.3993" stroke="#645D70" stroke-width="1.45455" stroke-miterlimit="10" stroke-linecap="round"/>
<path d="M20.1127 32.763C19.379 33.1808 18.4516 32.8751 18.0949 32.1057C14.7369 24.8445 16.7548 16.5184 23.858 12.4573C30.9611 8.39611 39.1599 10.8827 43.7102 17.4662C44.1892 18.1592 43.9853 19.1171 43.2516 19.535L20.1127 32.763Z" fill="#55246C"/>
<path d="M24.2978 10.4476L21.8956 11.8206C21.4656 12.0664 21.3162 12.6142 21.562 13.0442L21.7491 13.3716C21.9949 13.8016 22.5427 13.951 22.9727 13.7052L25.3749 12.3322C25.8049 12.0865 25.9543 11.5386 25.7085 11.1086L25.5214 10.7812C25.2756 10.3512 24.7278 10.2019 24.2978 10.4476Z" fill="#55246C"/>
<path d="M79.1453 32.763C79.8791 33.1808 80.8065 32.8751 81.1631 32.1057C84.5262 24.8445 82.5033 16.5184 75.4052 12.4573C68.302 8.39611 60.1033 10.8827 55.553 17.4662C55.074 18.1592 55.2778 19.1171 56.0115 19.535L79.1504 32.763H79.1453Z" fill="#55246C"/>
<path d="M73.884 12.3297L76.2862 13.7027C76.7162 13.9485 77.264 13.7991 77.5098 13.3691L77.6969 13.0417C77.9427 12.6117 77.7933 12.0639 77.3633 11.8181L74.9611 10.4451C74.5311 10.1993 73.9832 10.3487 73.7375 10.7787L73.5504 11.1061C73.3046 11.5361 73.4539 12.0839 73.884 12.3297Z" fill="#55246C"/>
<path d="M48.0818 15.342H51.9235C52.7044 15.342 53.3333 15.9524 53.3333 16.6989V19.342H46.6667V16.6989C46.6667 15.9473 47.3008 15.342 48.0765 15.342H48.0818Z" fill="#BD84D6"/>
<path d="M47.1706 54.9975L40.3174 63.0205C39.8185 63.6046 39.868 64.4658 40.4279 64.9441C40.9878 65.4224 41.8462 65.3366 42.3451 64.7525L49.1983 56.7295C49.6972 56.1454 49.6478 55.2842 49.0878 54.8059C48.5279 54.3276 47.6696 54.4134 47.1706 54.9975Z" fill="#55246C"/>
<path d="M51.3333 52.6618V38.0221C51.3333 37.2783 50.7364 36.6753 50 36.6753C49.2636 36.6753 48.6667 37.2783 48.6667 38.0221V52.6618C48.6667 53.4056 49.2636 54.0086 50 54.0086C50.7364 54.0086 51.3333 53.4056 51.3333 52.6618Z" fill="#55246C"/>
<path d="M50 57.342C51.841 57.342 53.3333 55.8496 53.3333 54.0086C53.3333 52.1677 51.841 50.6753 50 50.6753C48.1591 50.6753 46.6667 52.1677 46.6667 54.0086C46.6667 55.8496 48.1591 57.342 50 57.342Z" fill="#645D70"/>
</svg>
