<svg width="100" height="100" viewBox="0 0 100 100" fill="none" xmlns="http://www.w3.org/2000/svg">
<path d="M95.8699 76.9309H15.9243C15.3114 79.7024 14.9916 81.0881 14.3787 83.8595H94.3243C94.9372 81.0881 95.257 79.7024 95.8699 76.9309Z" fill="#55246C"/>
<path d="M32.1268 30.875H73.5653C76.843 30.875 78.9083 33.5265 78.1755 36.8043C75.1908 50.1819 72.2062 63.5594 69.2349 76.937H15.9245C18.9091 63.5594 21.8937 50.1819 24.8651 36.8043C25.5979 33.5265 28.8357 30.875 32.1135 30.875H32.1268Z" fill="#FFDA7C"/>
<path d="M95.8688 76.9348H69.2203C72.005 64.4233 73.4041 58.1609 76.1889 45.6494H94.2965C97.1746 45.6494 99.2398 47.6347 99.2665 50.4462C99.3065 54.7899 99.3198 56.9484 99.3598 61.2921C97.9607 67.5545 97.2678 70.6724 95.8688 76.9348Z" fill="#645D70"/>
<path d="M76.9352 59.677C77.9079 55.3333 78.3875 53.1748 79.3469 48.8311H92.458C94.2434 48.8311 95.5092 50.0569 95.5359 51.8024L95.6291 59.677H76.9352Z" fill="white"/>
<path d="M45.4385 76.9261C44.2926 73.1153 40.8682 70.5171 36.2714 70.5171C31.6745 70.5171 27.091 73.1153 24.2396 76.9261C23.0004 78.5916 22.081 80.4703 21.628 82.4823C21.5214 82.9486 21.4548 83.415 21.4015 83.868H45.172C45.3185 83.415 45.4518 82.9486 45.5584 82.4823C46.0114 80.4703 45.9315 78.5916 45.4251 76.9261H45.4385Z" fill="#55246C"/>
<path d="M31.7805 90.6456C36.2841 90.6456 40.7611 86.9948 41.7604 82.4778C42.7597 77.9742 39.9217 74.3101 35.4181 74.3101C30.9144 74.3101 26.4375 77.9609 25.4382 82.4778C24.4389 86.9814 27.2769 90.6456 31.7805 90.6456Z" fill="#662B80"/>
<path d="M32.6718 86.6236C34.9635 86.6236 37.2287 84.7716 37.735 82.4798C38.2413 80.188 36.8023 78.3359 34.5238 78.3359C32.2454 78.3359 29.9669 80.188 29.4606 82.4798C28.9543 84.7716 30.3933 86.6236 32.6718 86.6236Z" fill="white"/>
<path d="M91.7925 76.9261C90.6466 73.1153 87.2223 70.5171 82.6254 70.5171C78.0285 70.5171 73.445 73.1153 70.5936 76.9261C69.3544 78.5916 68.435 80.4703 67.982 82.4823C67.8754 82.9486 67.8088 83.415 67.7555 83.868H91.526C91.6726 83.415 91.8058 82.9486 91.9124 82.4823C92.3654 80.4703 92.2855 78.5916 91.7792 76.9261H91.7925Z" fill="#55246C"/>
<path d="M78.1376 90.6456C82.6412 90.6456 87.1182 86.9948 88.1175 82.4778C89.1168 77.9742 86.2788 74.3101 81.7752 74.3101C77.2715 74.3101 72.7946 77.9609 71.7953 82.4778C70.796 86.9814 73.634 90.6456 78.1376 90.6456Z" fill="#662B80"/>
<path d="M79.0289 86.6236C81.3207 86.6236 83.5858 84.7716 84.0922 82.4798C84.5985 80.188 83.1595 78.3359 80.881 78.3359C78.6026 78.3359 76.3241 80.188 75.8178 82.4798C75.3115 84.7716 76.7505 86.6236 79.0289 86.6236Z" fill="white"/>
<g filter="url(#filter0_d_950_6179)">
<path d="M33.7762 48.9728C44.8087 48.9728 53.7626 40.0189 53.7626 28.9864C53.7626 17.9539 44.8087 9 33.7762 9C22.7437 9 13.7898 17.9539 13.7898 28.9864C13.7898 40.0189 22.7437 48.9728 33.7762 48.9728Z" fill="#662B80"/>
<path d="M33.7764 46.0117C43.1834 46.0117 50.8048 38.3902 50.8048 28.9832C50.8048 19.5763 43.1834 11.9548 33.7764 11.9548C24.3695 11.9548 16.748 19.5763 16.748 28.9832C16.748 38.3902 24.3695 46.0117 33.7764 46.0117Z" fill="white"/>
<g opacity="0.4">
<path d="M16.7476 28.9891H33.776V11.9607C24.3691 11.9607 16.7476 19.5822 16.7476 28.9891Z" fill="#C18DD9"/>
</g>
<path d="M33.7765 13.8071V16.7651" stroke="#645D70" stroke-width="1.20968" stroke-miterlimit="10" stroke-linecap="round"/>
<path d="M33.7765 41.2078V44.1658" stroke="#645D70" stroke-width="1.20968" stroke-miterlimit="10" stroke-linecap="round"/>
<path d="M23.4127 18.6206L25.6378 20.4727" stroke="#645D70" stroke-width="1.20968" stroke-miterlimit="10" stroke-linecap="round"/>
<path d="M42.2788 37.1313L44.5973 39.1167" stroke="#645D70" stroke-width="1.20968" stroke-miterlimit="10" stroke-linecap="round"/>
<path d="M18.9615 28.9912H21.9194" stroke="#645D70" stroke-width="1.20968" stroke-miterlimit="10" stroke-linecap="round"/>
<path d="M45.9816 28.9912H48.9396" stroke="#645D70" stroke-width="1.20968" stroke-miterlimit="10" stroke-linecap="round"/>
<path d="M24.1295 39.543L26.328 37.1313" stroke="#645D70" stroke-width="1.20968" stroke-miterlimit="10" stroke-linecap="round"/>
<path d="M42.6477 21.2242L44.8196 19.2256" stroke="#645D70" stroke-width="1.20968" stroke-miterlimit="10" stroke-linecap="round"/>
<path d="M33.7863 28.2482H27.9236C27.4972 28.2482 27.1508 28.5946 27.1508 28.9943C27.1508 29.3941 27.4972 29.7405 27.9236 29.7272H33.7863C34.2126 29.7272 34.5591 29.3808 34.5591 28.981C34.5591 28.568 34.2126 28.2349 33.7863 28.2482Z" fill="#55246C"/>
<path d="M34.5064 28.2382V20.1104C34.5064 19.6974 34.1733 19.3643 33.7603 19.3643C33.3472 19.3643 33.0141 19.6974 33.0141 20.1104V28.2382C33.0141 28.6513 33.3472 28.9844 33.7603 28.9844C34.1733 28.9844 34.5064 28.6513 34.5064 28.2382Z" fill="#55246C"/>
<path d="M33.7738 30.8304C34.7998 30.8304 35.6259 30.0043 35.6259 28.9783C35.6259 27.9523 34.7998 27.1262 33.7738 27.1262C32.7479 27.1262 31.9218 27.9523 31.9218 28.9783C31.9218 30.0043 32.7479 30.8304 33.7738 30.8304Z" fill="#645D70"/>
</g>
<path d="M16.2682 54.3323H9.07306" stroke="#645D70" stroke-width="2.41935" stroke-miterlimit="10" stroke-linecap="round"/>
<path d="M16.7887 61.0483H1.67896" stroke="#645D70" stroke-width="2.41935" stroke-miterlimit="10" stroke-linecap="round"/>
<path d="M14.0303 67.7583H5.03647" stroke="#645D70" stroke-width="2.41935" stroke-miterlimit="10" stroke-linecap="round"/>
<defs>
<filter id="filter0_d_950_6179" x="11.0426" y="6.25278" width="47.2987" height="47.2988" filterUnits="userSpaceOnUse" color-interpolation-filters="sRGB">
<feFlood flood-opacity="0" result="BackgroundImageFix"/>
<feColorMatrix in="SourceAlpha" type="matrix" values="0 0 0 0 0 0 0 0 0 0 0 0 0 0 0 0 0 0 127 0" result="hardAlpha"/>
<feOffset dx="0.915741" dy="0.915741"/>
<feGaussianBlur stdDeviation="1.83148"/>
<feComposite in2="hardAlpha" operator="out"/>
<feColorMatrix type="matrix" values="0 0 0 0 0 0 0 0 0 0 0 0 0 0 0 0 0 0 0.1 0"/>
<feBlend mode="normal" in2="BackgroundImageFix" result="effect1_dropShadow_950_6179"/>
<feBlend mode="normal" in="SourceGraphic" in2="effect1_dropShadow_950_6179" result="shape"/>
</filter>
</defs>
</svg>
