<svg width="100" height="100" viewBox="0 0 100 100" fill="none" xmlns="http://www.w3.org/2000/svg">
<path d="M91.9286 89.8701H9V93.7094H91.9286V89.8701Z" fill="#662B80"/>
<path d="M91.9286 80.7241H9V84.5634H91.9286V80.7241Z" fill="#662B80"/>
<path d="M21.6973 84.4951H12.483V89.8701H21.6973V84.4951Z" fill="#55246C"/>
<path d="M55.6285 84.4951H46.4142V89.8701H55.6285V84.4951Z" fill="#55246C"/>
<path d="M89.2522 84.4951H80.0379V89.8701H89.2522V84.4951Z" fill="#55246C"/>
<path d="M48.7243 43.8621H18.7532C16.8517 43.8621 15.3102 45.4035 15.3102 47.305V77.2762C15.3102 79.1777 16.8517 80.7192 18.7532 80.7192H48.7243C50.6259 80.7192 52.1673 79.1777 52.1673 77.2762V47.305C52.1673 45.4035 50.6259 43.8621 48.7243 43.8621Z" fill="#55246C"/>
<path d="M85.5817 43.8621H55.6105C53.709 43.8621 52.1675 45.4035 52.1675 47.305V77.2762C52.1675 79.1777 53.709 80.7192 55.6105 80.7192H85.5817C87.4832 80.7192 89.0247 79.1777 89.0247 77.2762V47.305C89.0247 45.4035 87.4832 43.8621 85.5817 43.8621Z" fill="#C18DD9"/>
<path d="M37.5779 43.8621H29.8993V53.0763H37.5779V43.8621Z" fill="#C18DD9"/>
<path d="M74.4352 43.8621H66.7567V53.0763H74.4352V43.8621Z" fill="#55246C"/>
<path d="M65.6172 7H35.646C33.7445 7 32.203 8.54148 32.203 10.443V40.4142C32.203 42.3157 33.7445 43.8571 35.646 43.8571H65.6172C67.5187 43.8571 69.0602 42.3157 69.0602 40.4142V10.443C69.0602 8.54148 67.5187 7 65.6172 7Z" fill="#C18DD9"/>
<path d="M54.4707 7H46.7921V16.2143H54.4707V7Z" fill="#55246C"/>
<path d="M59.4235 33.1121L57.5423 35.0297H58.492V38.7229H60.355V35.0297H61.2683L59.4235 33.1121Z" fill="white"/>
<path d="M63.5527 33.1121L61.6728 35.0297H62.6212V38.7229H64.4842V35.0297H65.3975L63.5527 33.1121Z" fill="white"/>
<path d="M65.3976 39.2849H57.5423V40.4071H65.3976V39.2849Z" fill="white"/>
<path d="M79.3877 69.9741L77.5065 71.8918H78.4562V75.585H80.3192V71.8918H81.2324L79.3877 69.9741Z" fill="white"/>
<path d="M83.5168 69.9741L81.6369 71.8918H82.5853V75.585H84.4483V71.8918H85.3616L83.5168 69.9741Z" fill="white"/>
<path d="M85.3617 76.147H77.5065V77.2691H85.3617V76.147Z" fill="white"/>
<path d="M42.5307 69.9741L40.6495 71.8918H41.5992V75.585H43.4622V71.8918H44.3755L42.5307 69.9741Z" fill="white"/>
<path d="M46.6599 69.9741L44.78 71.8918H45.7284V75.585H47.5914V71.8918H48.5046L46.6599 69.9741Z" fill="white"/>
<path d="M48.5047 76.147H40.6495V77.2691H48.5047V76.147Z" fill="white"/>
</svg>
