<svg width="167" height="34" viewBox="0 0 167 34" fill="none" xmlns="http://www.w3.org/2000/svg">
<g clip-path="url(#clip0_1464_1804)">
<path d="M65.0806 19.8709C64.2025 19.4955 62.7354 19.5713 61.0755 20.5665L61.0858 20.5424C61.0858 20.5424 64.0406 12.694 64.137 12.4323C64.509 11.4301 64.4125 10.6312 64.0544 10.1422C63.9235 9.96309 63.5654 9.58427 62.8663 9.56705C62.36 9.55328 61.8125 9.74958 61.5197 9.91143C61.3544 10.0044 61.3579 10.1732 61.3613 10.2868C61.3751 10.6587 61.2339 11.4233 61.0445 11.9674C60.4935 13.5343 59.8013 15.1047 59.6153 15.5179C59.1986 16.4478 58.0725 18.7344 56.5951 19.9673C55.9132 20.539 55.2796 20.8489 54.732 20.8524C53.9158 20.8455 53.847 19.5678 54.3945 18.2213C54.3945 18.2213 56.5607 12.7422 56.6054 12.6217C57.6489 9.86667 55.741 8.99194 53.9089 9.92521C53.7987 9.98375 53.6748 10.0974 53.7609 10.1904C54.0191 10.4659 53.8952 11.2235 53.4716 12.4943C53.4716 12.4943 52.2697 15.7211 51.3364 17.6703C49.6696 21.1485 46.8698 21.2519 48.082 17.7943C48.3782 16.9471 53.2409 3.69883 53.2409 3.69883C53.7884 2.1319 53.9606 1.13664 53.2443 0.461658C52.528 -0.213326 51.3605 -0.0755741 50.5306 0.375563C50.4135 0.440995 50.2654 0.575303 50.3687 0.657954C50.7579 0.978227 50.6132 1.79441 50.2206 3.07894C49.1634 6.06816 45.5819 16.0276 44.7278 18.5554C43.9598 20.8179 45.1169 22.0095 46.6908 22.0508C47.8685 22.0784 49.6524 21.4516 51.3846 19.2889C51.426 20.3771 51.9012 21.6307 53.7195 21.9992V22.006C56.0062 22.4537 57.4492 20.8593 58.0208 20.2084C58.193 20.0155 58.4548 19.7125 58.596 19.5472L58.4685 19.9708C58.224 20.6492 58.0518 21.1795 57.828 21.8132C57.7798 21.9475 57.7316 22.0853 57.6765 22.2299C55.7789 23.7073 53.723 25.5979 52.4316 27.034C50.0932 29.6272 49.8418 32.761 52.0149 33.3809C55.2589 34.3038 57.5077 30.1368 59.6256 24.4236L60.4866 22.1369L60.6037 21.8235V21.8098C63.5103 19.8399 65.4698 21.6686 65.5455 22.6845C65.5559 22.8257 65.7556 22.8498 65.8383 22.7602C66.6889 21.8476 66.2894 20.384 65.0806 19.8709ZM57.2563 23.9415C55.4655 28.5803 53.8056 31.8484 52.2215 31.69C51.5224 31.6211 51.4191 30.8463 51.8255 29.8717C52.8173 27.5127 56.3954 24.5269 57.2873 23.8072L57.2563 23.9415Z" fill="white"/>
<path d="M44.6555 9.90023C43.1609 9.22181 41.3874 10.0586 39.0525 13.0031H39.0456C39.631 11.5326 39.7344 10.5787 39.1489 10.0035C38.4085 9.27691 37.0172 9.73493 36.6074 9.94845C36.4628 10.0242 36.3663 10.0965 36.4283 10.2343C36.6866 10.8232 36.2665 12.0836 35.7981 13.4163C35.619 13.926 35.1541 15.2209 34.6031 16.5261C33.7112 18.6337 31.8756 20.7723 30.4568 20.3797C29.9712 20.2454 29.8059 19.5222 30.0504 18.83L32.3405 12.1869C33.1946 9.38022 30.9079 9.18737 29.6371 9.89335C29.4718 9.98633 29.341 10.0965 29.4133 10.1998C29.6922 10.5924 29.4305 11.66 29.2652 12.1146C28.6212 13.9019 27.96 16.4779 26.5343 18.5338C25.7353 19.7908 24.6126 20.6208 23.7689 20.5726C22.8976 20.483 22.5601 19.5256 23.1594 17.6557C23.397 16.9152 24.5713 13.685 25.2188 11.629C25.8352 9.6695 23.6449 9.20459 22.2846 9.92778C22.1744 9.98633 22.0436 10.1 22.1262 10.1895C22.3776 10.4685 22.3053 11.2468 21.8886 12.4314C21.3927 13.8468 20.58 16.0371 20.1082 18.1516C19.5434 20.6965 20.6316 21.8881 22.3707 22.0499C24.134 22.2152 25.8249 21.0237 26.9785 19.5532C26.6755 21.3061 28.0289 22.0121 28.7831 22.0809C30.1124 22.2015 31.6208 21.5127 33.1119 20.0732C32.8571 21.2889 33.3909 22.0499 34.703 22.0568C35.347 22.0568 36.0047 21.7813 36.1253 21.5713C36.1425 21.5437 36.1494 21.5196 36.1356 21.4955C36.1115 21.4507 36.0047 21.2958 36.2251 20.6277C37.1308 17.8898 38.0366 15.8959 38.9078 14.7043C39.8824 13.3716 41.2427 12.2971 42.1726 12.3901C43.0817 12.4831 43.1334 13.5438 42.8166 14.0362C42.6581 14.267 42.7821 14.3806 42.944 14.3668C45.5819 14.1533 46.5806 10.7784 44.6521 9.90368L44.6555 9.90023Z" fill="white"/>
<path d="M24.9021 22.9799C24.2168 23.6687 22.8841 24.1577 21.634 24.0854C19.4299 23.9545 18.0111 22.7733 16.6542 20.2283C15.4214 17.9141 13.7477 14.1431 13.2483 12.8104C17.2776 11.0162 21.844 7.50348 22.4605 5.02739C22.6155 4.40406 22.4605 3.73252 22.061 3.46391C21.8372 3.31582 21.6994 3.36404 21.5995 3.49146C20.8247 6.35325 14.0473 10.7923 10.2522 11.7049C11.554 8.02694 12.873 4.25598 12.9522 3.94604C13.7408 0.839733 11.9362 -0.141749 10.0146 0.0579914C4.96945 0.588336 -0.485525 7.09711 0.0344886 12.5176C0.0861455 13.0377 0.396087 14.0674 1.32936 14.2774C2.06288 14.4393 2.66899 14.0226 2.82052 13.4371C2.84118 13.3614 2.76886 13.2925 2.69654 13.3063C2.3866 13.3752 1.74606 12.8655 1.59108 11.9529C0.709473 6.71141 6.87731 1.03603 9.54281 1.74545C10.0973 1.89353 10.2867 2.57541 9.93885 3.62232C8.95048 6.43246 5.28972 16.9085 4.35301 19.6084C3.29576 22.6596 5.18641 23.8753 7.23891 23.2244C7.44209 23.159 7.50753 22.9765 7.38355 22.8904C6.8532 22.5219 6.90831 21.2408 7.67283 18.9024C7.72104 18.7544 9.33274 14.3153 9.39128 14.1466C9.75288 14.0157 10.111 13.8917 10.4072 13.7781C14.0748 22.4323 16.0344 25.9312 21.1587 25.58C23.504 25.4181 24.8539 23.834 25.1949 23.2451C25.312 23.0453 25.0537 22.8146 24.8987 22.973L24.9021 22.9799Z" fill="white"/>
<path d="M167 16.6239H158.622C158.646 18.642 159.975 19.8749 161.797 19.8749C163.067 19.8749 164.159 19.2447 164.686 17.9463L166.907 18.9554C166.002 21.0458 164.138 22.2029 161.68 22.2029C158.029 22.2029 155.832 19.9679 155.832 16.0247C155.832 12.0575 158.005 9.60547 161.559 9.60547C165.003 9.60547 167 12.0712 167 15.4875V16.6239ZM161.487 11.7751C159.696 11.7751 158.622 12.8702 158.622 14.7264H164.159C164.159 14.7264 164.452 11.7751 161.487 11.7751Z" fill="white"/>
<path d="M100.566 16.6239H92.1869C92.211 18.642 93.5403 19.8749 95.3621 19.8749C96.6329 19.8749 97.7246 19.2447 98.2515 17.9463L100.473 18.9554C99.567 21.0458 97.7039 22.2029 95.245 22.2029C91.5946 22.2029 89.3975 19.9679 89.3975 16.0247C89.3975 12.0816 91.5705 9.60547 95.1245 9.60547C98.5683 9.60547 100.566 12.0712 100.566 15.4875V16.6239ZM95.0522 11.7751C93.2614 11.7751 92.1869 12.8702 92.1869 14.7264H97.7246C97.7246 14.7264 98.0173 11.7751 95.0522 11.7751Z" fill="white"/>
<path d="M76.1487 9.26021V21.985H73.373V5.55469H77.0889L84.2589 18.3346V5.55469H87.0346V21.985H83.3291L76.1487 9.26021Z" fill="white"/>
<path d="M107.553 13.8479L109.984 10.0391H113.187L109.227 15.8212L113.521 21.989H110.27L107.556 17.8117L104.698 21.989H101.592L105.886 15.8212L101.902 10.0391H105.129L107.56 13.8479H107.553Z" fill="white"/>
<path d="M114.358 12.1195V10.0395H116.493V5.88281H119.338V10.0395H122.23V12.1195H119.338V17.8293C119.338 19.0967 119.882 19.7165 121.07 19.7165C121.545 19.7165 121.852 19.6442 122.23 19.5719V21.986C121.542 22.1306 121.022 22.1995 120.285 22.1995C117.44 22.1995 116.49 20.6946 116.49 18.2805V12.1161H114.354L114.358 12.1195Z" fill="white"/>
<path d="M124.71 10.0378H127.437V12.1419C128.126 10.5406 129.263 9.75195 130.923 9.75195C132.607 9.75195 133.722 10.5647 134.315 12.1661C135.121 10.5406 136.329 9.75195 137.993 9.75195C140.293 9.75195 141.622 11.3774 141.622 14.1738V21.9878H138.778V14.6284C138.778 12.8824 138.137 12.049 136.832 12.049C135.41 12.049 134.604 13.0993 134.604 15.0106V21.9878H131.759V14.556C131.759 12.9065 131.071 12.0455 129.838 12.0455C128.415 12.0455 127.561 13.1682 127.561 15.0795V21.9843H124.717V10.0378H124.71Z" fill="white"/>
<path d="M144.54 8.05413V5.06836H147.622V8.05413H144.54ZM144.657 21.9843V10.0378H147.502V21.9843H144.657Z" fill="white"/>
<path d="M153.624 4.66211V21.9844H150.779V4.66211H153.624Z" fill="white"/>
</g>
<defs>
<clipPath id="clip0_1464_1804">
<rect width="167" height="33.5081" fill="white"/>
</clipPath>
</defs>
</svg>
