<svg width="167" height="34" viewBox="0 0 167 34" fill="none" xmlns="http://www.w3.org/2000/svg">
<g clip-path="url(#clip0_278_1461)">
<path d="M65.0809 19.8707C64.2027 19.4953 62.7356 19.5711 61.0757 20.5664L61.0861 20.5423C61.0861 20.5423 64.0408 12.6938 64.1373 12.4321C64.5092 11.43 64.4128 10.631 64.0546 10.142C63.9238 9.96291 63.5656 9.58409 62.8665 9.56687C62.3603 9.5531 61.8127 9.74939 61.52 9.91125C61.3547 10.0042 61.3581 10.173 61.3616 10.2866C61.3753 10.6586 61.2341 11.4231 61.0447 11.9672C60.4937 13.5341 59.8015 15.1045 59.6156 15.5178C59.1989 16.4476 58.0727 18.7343 56.5954 19.9671C55.9135 20.5388 55.2798 20.8487 54.7323 20.8522C53.9161 20.8453 53.8472 19.5677 54.3948 18.2211C54.3948 18.2211 56.5609 12.7421 56.6057 12.6215C57.6492 9.86648 55.7413 8.99176 53.9092 9.92503C53.799 9.98357 53.675 10.0972 53.7611 10.1902C54.0194 10.4657 53.8954 11.2233 53.4718 12.4941C53.4718 12.4941 52.2699 15.7209 51.3367 17.6701C49.6699 21.1484 46.8701 21.2517 48.0823 17.7941C48.3785 16.9469 53.2411 3.69864 53.2411 3.69864C53.7887 2.13172 53.9608 1.13646 53.2445 0.461475C52.5282 -0.213509 51.3608 -0.0757572 50.5308 0.37538C50.4137 0.440812 50.2657 0.57512 50.369 0.657771C50.7581 0.978044 50.6135 1.79422 50.2209 3.07876C49.1636 6.06798 45.5821 16.0274 44.728 18.5552C43.9601 20.8178 45.1172 22.0093 46.691 22.0506C47.8688 22.0782 49.6527 21.4514 51.3849 19.2887C51.4262 20.3769 51.9015 21.6305 53.7198 21.999V22.0059C56.0065 22.4536 57.4494 20.8591 58.0211 20.2082C58.1933 20.0154 58.455 19.7123 58.5962 19.547L58.4688 19.9706C58.2243 20.649 58.0521 21.1794 57.8282 21.813C57.78 21.9473 57.7318 22.0851 57.6767 22.2297C55.7792 23.7071 53.7232 25.5977 52.4318 27.0338C50.0935 29.627 49.8421 32.7608 52.0151 33.3807C55.2592 34.3037 57.508 30.1367 59.6259 24.4234L60.4868 22.1367L60.6039 21.8233V21.8096C63.5105 19.8397 65.47 21.6684 65.5458 22.6843C65.5561 22.8255 65.7558 22.8496 65.8385 22.7601C66.6891 21.8474 66.2896 20.3838 65.0809 19.8707ZM57.2566 23.9413C55.4658 28.5801 53.8059 31.8482 52.2217 31.6898C51.5226 31.6209 51.4193 30.8461 51.8257 29.8715C52.8175 27.5125 56.3956 24.5267 57.2876 23.807L57.2566 23.9413Z" fill="#5F0080"/>
<path d="M44.6558 9.90091C43.1612 9.22248 41.3876 10.0593 39.0527 13.0038H39.0458C39.6313 11.5333 39.7346 10.5793 39.1492 10.0042C38.4087 9.27758 37.0174 9.7356 36.6076 9.94912C36.463 10.0249 36.3666 10.0972 36.4286 10.235C36.6868 10.8238 36.2667 12.0843 35.7983 13.417C35.6193 13.9267 35.1544 15.2216 34.6033 16.5268C33.7114 18.6344 31.8759 20.773 30.457 20.3804C29.9714 20.2461 29.8061 19.5229 30.0506 18.8307L32.3408 12.1876C33.1948 9.38089 30.9082 9.18804 29.6374 9.89402C29.4721 9.987 29.3412 10.0972 29.4135 10.2005C29.6925 10.5931 29.4308 11.6607 29.2655 12.1153C28.6215 13.9026 27.9603 16.4786 26.5345 18.5345C25.7356 19.7915 24.6129 20.6214 23.7692 20.5732C22.8979 20.4837 22.5604 19.5263 23.1596 17.6563C23.3972 16.9159 24.5716 13.6856 25.219 11.6297C25.8354 9.67017 23.6452 9.20526 22.2849 9.92846C22.1747 9.987 22.0438 10.1006 22.1265 10.1902C22.3779 10.4691 22.3056 11.2474 21.8889 12.4321C21.3929 13.8475 20.5802 16.0377 20.1084 18.1522C19.5436 20.6972 20.6319 21.8888 22.371 22.0506C24.1342 22.2159 25.8251 21.0244 26.9788 19.5539C26.6757 21.3068 28.0291 22.0127 28.7833 22.0816C30.1126 22.2021 31.621 21.5134 33.1122 20.0739C32.8573 21.2895 33.3911 22.0506 34.7032 22.0575C35.3472 22.0575 36.005 21.782 36.1255 21.5719C36.1427 21.5444 36.1496 21.5203 36.1358 21.4962C36.1117 21.4514 36.005 21.2964 36.2254 20.6283C37.1311 17.8905 38.0368 15.8966 38.9081 14.705C39.8827 13.3723 41.243 12.2978 42.1728 12.3908C43.082 12.4838 43.1336 13.5444 42.8168 14.0369C42.6584 14.2676 42.7824 14.3813 42.9442 14.3675C45.5822 14.154 46.5809 10.7791 44.6523 9.90435L44.6558 9.90091Z" fill="#5F0080"/>
<path d="M24.9021 22.9804C24.2168 23.6692 22.8841 24.1582 21.634 24.0859C19.4299 23.955 18.0111 22.7738 16.6542 20.2289C15.4214 17.9146 13.7477 14.1437 13.2483 12.8109C17.2776 11.0167 21.844 7.50403 22.4605 5.02794C22.6155 4.40461 22.4605 3.73307 22.061 3.46446C21.8372 3.31637 21.6994 3.36458 21.5995 3.49201C20.8247 6.3538 14.0473 10.7929 10.2522 11.7055C11.554 8.02749 12.873 4.25653 12.9522 3.94659C13.7408 0.840282 11.9362 -0.141199 10.0146 0.0585407C4.96945 0.588885 -0.485525 7.09766 0.0344886 12.5182C0.0861455 13.0382 0.396087 14.0679 1.32936 14.278C2.06288 14.4398 2.66899 14.0231 2.82052 13.4377C2.84118 13.3619 2.76886 13.293 2.69654 13.3068C2.3866 13.3757 1.74606 12.866 1.59108 11.9534C0.709473 6.71196 6.87731 1.03658 9.54281 1.746C10.0973 1.89408 10.2867 2.57596 9.93885 3.62287C8.95048 6.43301 5.28972 16.909 4.35301 19.609C3.29576 22.6602 5.18641 23.8758 7.23891 23.225C7.44209 23.1595 7.50753 22.977 7.38355 22.8909C6.8532 22.5224 6.90831 21.2413 7.67283 18.903C7.72104 18.7549 9.33274 14.3159 9.39128 14.1471C9.75288 14.0162 10.111 13.8923 10.4072 13.7786C14.0748 22.4329 16.0344 25.9318 21.1587 25.5805C23.504 25.4187 24.8539 23.8345 25.1949 23.2456C25.312 23.0459 25.0537 22.8151 24.8987 22.9736L24.9021 22.9804Z" fill="#5F0080"/>
<path d="M167 16.6232H158.621C158.645 18.6413 159.975 19.8741 161.796 19.8741C163.067 19.8741 164.159 19.2439 164.686 17.9456L166.907 18.9546C166.001 21.045 164.138 22.2021 161.679 22.2021C158.029 22.2021 155.832 19.9671 155.832 16.024C155.832 12.0567 158.005 9.60474 161.559 9.60474C165.003 9.60474 167 12.0705 167 15.4867V16.6232ZM161.487 11.7743C159.696 11.7743 158.621 12.8695 158.621 14.7257H164.159C164.159 14.7257 164.452 11.7743 161.487 11.7743Z" fill="#5F0080"/>
<path d="M100.566 16.6232H92.1869C92.211 18.6413 93.5403 19.8741 95.3621 19.8741C96.6329 19.8741 97.7246 19.2439 98.2515 17.9456L100.473 18.9546C99.567 21.045 97.7039 22.2021 95.245 22.2021C91.5946 22.2021 89.3975 19.9671 89.3975 16.024C89.3975 12.0808 91.5705 9.60474 95.1245 9.60474C98.5683 9.60474 100.566 12.0705 100.566 15.4867V16.6232ZM95.0522 11.7743C93.2614 11.7743 92.1869 12.8695 92.1869 14.7257H97.7246C97.7246 14.7257 98.0173 11.7743 95.0522 11.7743Z" fill="#5F0080"/>
<path d="M76.1492 9.2604V21.9852H73.3735V5.55487H77.0894L84.2594 18.3348V5.55487H87.0351V21.9852H83.3296L76.1492 9.2604Z" fill="#5F0080"/>
<path d="M107.553 13.8475L109.985 10.0387H113.187L109.227 15.8208L113.521 21.9887H110.27L107.557 17.8113L104.698 21.9887H101.592L105.886 15.8208L101.902 10.0387H105.129L107.56 13.8475H107.553Z" fill="#5F0080"/>
<path d="M114.358 12.1187V10.0387H116.493V5.88202H119.338V10.0387H122.231V12.1187H119.338V17.8285C119.338 19.0959 119.882 19.7157 121.07 19.7157C121.545 19.7157 121.852 19.6434 122.231 19.5711V21.9852C121.542 22.1299 121.022 22.1987 120.285 22.1987C117.44 22.1987 116.49 20.6938 116.49 18.2797V12.1153H114.355L114.358 12.1187Z" fill="#5F0080"/>
<path d="M124.71 10.0386H127.438V12.1428C128.126 10.5414 129.263 9.75281 130.923 9.75281C132.607 9.75281 133.723 10.5655 134.315 12.1669C135.121 10.5414 136.33 9.75281 137.993 9.75281C140.293 9.75281 141.623 11.3783 141.623 14.1746V21.9886H138.778V14.6292C138.778 12.8832 138.138 12.0498 136.832 12.0498C135.41 12.0498 134.604 13.1002 134.604 15.0115V21.9886H131.76V14.5569C131.76 12.9073 131.071 12.0464 129.838 12.0464C128.416 12.0464 127.562 13.1691 127.562 15.0804V21.9852H124.717V10.0386H124.71Z" fill="#5F0080"/>
<path d="M144.54 8.05505V5.06927H147.622V8.05505H144.54ZM144.657 21.9852V10.0387H147.501V21.9852H144.657Z" fill="#5F0080"/>
<path d="M153.624 4.6629V21.9852H150.78V4.6629H153.624Z" fill="#5F0080"/>
</g>
<defs>
<clipPath id="clip0_278_1461">
<rect width="167" height="33.5081" fill="white"/>
</clipPath>
</defs>
</svg>
