<svg width="16" height="17" viewBox="0 0 16 17" fill="none" xmlns="http://www.w3.org/2000/svg">
<path d="M7.92168 17C6.62378 17 5.47506 16.7614 4.47552 16.2842C3.49091 15.7921 2.66294 15.1434 1.99161 14.3382C1.3352 13.518 0.835431 12.6009 0.492308 11.5868C0.164103 10.5728 0 9.5364 0 8.47763C0 7.43377 0.164103 6.40482 0.492308 5.39079C0.835431 4.37675 1.3352 3.46711 1.99161 2.66184C2.66294 1.84167 3.49091 1.19298 4.47552 0.71579C5.47506 0.238597 6.62378 0 7.92168 0C9.21958 0 10.3608 0.238597 11.3455 0.71579C12.3301 1.19298 13.1506 1.84167 13.807 2.66184C14.4783 3.46711 14.9855 4.37675 15.3287 5.39079C15.6718 6.40482 15.8434 7.43377 15.8434 8.47763C15.8434 9.58114 15.6569 10.6623 15.2839 11.7211C14.9259 12.7649 14.3963 13.6895 13.6951 14.4947L16 16.7763H13.8517L12.5762 15.5237C11.9646 15.986 11.2709 16.3513 10.4951 16.6197C9.71935 16.8732 8.86154 17 7.92168 17ZM7.92168 15.3895C8.57809 15.3895 9.18974 15.3 9.75664 15.1211C10.3385 14.9272 10.8681 14.6588 11.3455 14.3158L8.43636 11.4526L9.57762 10.4013L12.4867 13.2868C12.9939 12.6754 13.3818 11.9596 13.6504 11.1395C13.9338 10.3193 14.0755 9.43202 14.0755 8.47763C14.0755 7.18026 13.8145 6.01711 13.2923 4.98816C12.7702 3.9443 12.0466 3.12412 11.1217 2.52763C10.1967 1.91623 9.13007 1.61053 7.92168 1.61053C6.69837 1.61053 5.62424 1.91623 4.6993 2.52763C3.77436 3.12412 3.05082 3.9443 2.52867 4.98816C2.00653 6.01711 1.74545 7.18026 1.74545 8.47763C1.74545 9.78991 2.00653 10.968 2.52867 12.0118C3.05082 13.0557 3.77436 13.8833 4.6993 14.4947C5.62424 15.0912 6.69837 15.3895 7.92168 15.3895Z" fill="#999999"/>
</svg>
