<svg width="100" height="100" viewBox="0 0 100 100" fill="none" xmlns="http://www.w3.org/2000/svg">
    <path d="M9 67.119c0-.924.75-1.674 1.674-1.674h78.652c.925 0 1.674.75 1.674 1.674V87.2H9V67.12z" fill="#55246C"/>
    <path fill="#fff" d="M44.143 65.445h11.714V87.2H44.143z"/>
    <path d="M21.55 43.697c0-.924.75-1.674 1.674-1.674h53.551c.924 0 1.674.75 1.674 1.674v21.755H21.55V43.697z" fill="#BC88D0"/>
    <mask id="2lkdw0hxwa" style="mask-type:alpha" maskUnits="userSpaceOnUse" x="21" y="42" width="58" height="24">
        <path d="M21.55 43.697c0-.924.75-1.674 1.674-1.674h53.551c.924 0 1.674.75 1.674 1.674v21.755H21.55V43.697z" fill="#BC88D0"/>
    </mask>
    <g opacity=".4" stroke="#FBF1FF" stroke-width=".837" mask="url(#2lkdw0hxwa)">
        <path d="M-56.605 126.573 89.683-19.719M-50.305 126.573 95.983-19.719M-44.002 126.573 102.286-19.719M-37.7 126.573 108.59-19.719M-31.398 126.573 114.89-19.719M-25.098 126.573 121.19-19.719M-18.797 126.573 127.491-19.719M-12.494 126.573 133.794-19.719M-6.191 126.573 140.097-19.719M.11 126.573 146.396-19.719M6.41 126.573 152.698-19.719M12.713 126.573 159-19.719M19.014 126.573 165.302-19.719"/>
    </g>
    <path fill="#55246C" d="M45.816 42.023h8.367v23.429h-8.367z"/>
    <path d="M37.45 19.53H50v-3.765c-1.666-.666-4.978-2.023-7.272-3.055-.96-.432-2.116-.475-2.865.266-1.896 1.877-2.414 4.993-2.414 6.555zM62.55 19.53H50v-3.765c1.666-.666 4.978-2.023 7.272-3.055.96-.432 2.116-.475 2.865.266 1.896 1.877 2.414 4.993 2.414 6.555z" fill="#BC88D0"/>
    <circle cx="49.999" cy="18.597" r="3.347" fill="#55246C"/>
    <path d="M28.246 20.275c0-.924.75-1.673 1.674-1.673h40.163c.924 0 1.673.749 1.673 1.673V42.03h-43.51V20.275z" fill="#fff"/>
    <path fill="#BC88D0" d="M46.654 18.602h6.694v23.429h-6.694z"/>
</svg>
 